<svg xmlns="http://www.w3.org/2000/svg" width="31" height="31" viewBox="0 0 31 31">
  <g id="Add-Edit_icon" data-name="Add-Edit icon" transform="translate(-1291 -383)">
    <g id="Group_1966" data-name="Group 1966" transform="translate(157)">
      <circle id="Ellipse_1" data-name="Ellipse 1" cx="15.5" cy="15.5" r="15.5" transform="translate(1134 383)" fill="#eefcf2"/>
    </g>
    <path id="Icon_material-create-new-folder" data-name="Icon material-create-new-folder" d="M16.375,7.486H10.43L8.944,6H4.486A1.475,1.475,0,0,0,3.007,7.486L3,16.4a1.481,1.481,0,0,0,1.486,1.486H16.375A1.481,1.481,0,0,0,17.861,16.4V8.972A1.481,1.481,0,0,0,16.375,7.486Zm-.743,5.944H13.4V15.66H11.917V13.43H9.687V11.944h2.229V9.715H13.4v2.229h2.229Z" transform="translate(1296 387)" fill="#f47720"/>
  </g>
</svg>
