<svg xmlns="http://www.w3.org/2000/svg" xmlns:xlink="http://www.w3.org/1999/xlink" width="381.961" height="217.461" viewBox="0 0 381.961 217.461">
  <defs>
    <linearGradient id="linear-gradient" x1="0.5" y1="1" x2="0.5" gradientUnits="objectBoundingBox">
      <stop offset="0" stop-color="gray" stop-opacity="0.251"/>
      <stop offset="0.54" stop-color="gray" stop-opacity="0.122"/>
      <stop offset="1" stop-color="gray" stop-opacity="0.102"/>
    </linearGradient>
  </defs>
  <g id="Group_395" data-name="Group 395" transform="translate(0 0)">
    <path id="Path_2052" data-name="Path 2052" d="M409.961,291a60.285,60.285,0,0,1-8.721,31.345c0,11.559-5.389,22.036-14.13,29.672a48.332,48.332,0,0,1-7.038,5.112c-.1.063-.2.124-.307.184l-.564.334-.177.1h0a54.96,54.96,0,0,1-27.071,6.951H100.509c-17.338,0-33.034-6.037-44.406-15.793s-18.38-23.258-18.38-38.149A60.266,60.266,0,0,1,28,277.819c0-33.1,26.457-59.935,59.1-59.935,1.155,0,2.3.04,3.439.1,20.48-34.924,66.676-59.277,120.344-59.277,32.994,0,63.154,9.2,86.255,24.4a58.156,58.156,0,0,1,28.687-7.529c32.634,0,59.1,26.834,59.1,59.935a61.74,61.74,0,0,1-.334,6.27A60.1,60.1,0,0,1,409.961,291Z" transform="translate(-28 -147.244)" fill="#f47720" opacity="0.1"/>
    <ellipse id="Ellipse_32" data-name="Ellipse 32" cx="130.882" cy="3.506" rx="130.882" ry="3.506" transform="translate(7.011 155.676)" fill="#f47720" opacity="0.1"/>
    <g id="Group_392" data-name="Group 392" transform="translate(47.411 61.521)" opacity="0.7">
      <rect id="Rectangle_1987" data-name="Rectangle 1987" width="41.735" height="23.038" transform="translate(0 71.785)" fill="#65617d"/>
      <rect id="Rectangle_1988" data-name="Rectangle 1988" width="12.688" height="2.671" transform="translate(14.691 75.791)" opacity="0.1"/>
      <rect id="Rectangle_1989" data-name="Rectangle 1989" width="9.516" height="2.003" transform="translate(16.277 76.125)" opacity="0.1"/>
      <rect id="Rectangle_1990" data-name="Rectangle 1990" width="41.735" height="23.038" transform="translate(42.403 71.785)" fill="#65617d"/>
      <rect id="Rectangle_1991" data-name="Rectangle 1991" width="12.688" height="2.671" transform="translate(57.094 75.791)" opacity="0.1"/>
      <rect id="Rectangle_1992" data-name="Rectangle 1992" width="9.516" height="2.003" transform="translate(58.68 76.125)" opacity="0.1"/>
      <rect id="Rectangle_1993" data-name="Rectangle 1993" width="41.735" height="23.038" transform="translate(0 48.079)" fill="#65617d"/>
      <rect id="Rectangle_1994" data-name="Rectangle 1994" width="12.688" height="2.671" transform="translate(14.691 52.086)" opacity="0.1"/>
      <rect id="Rectangle_1995" data-name="Rectangle 1995" width="9.516" height="2.003" transform="translate(16.277 52.419)" opacity="0.1"/>
      <rect id="Rectangle_1996" data-name="Rectangle 1996" width="41.735" height="23.038" transform="translate(42.403 48.079)" fill="#65617d"/>
      <rect id="Rectangle_1997" data-name="Rectangle 1997" width="12.688" height="2.671" transform="translate(57.094 52.086)" opacity="0.1"/>
      <rect id="Rectangle_1998" data-name="Rectangle 1998" width="9.516" height="2.003" transform="translate(58.68 52.419)" opacity="0.1"/>
      <rect id="Rectangle_1999" data-name="Rectangle 1999" width="41.735" height="23.038" transform="translate(0 24.039)" fill="#65617d"/>
      <rect id="Rectangle_2000" data-name="Rectangle 2000" width="12.688" height="2.671" transform="translate(14.691 28.046)" opacity="0.1"/>
      <rect id="Rectangle_2001" data-name="Rectangle 2001" width="9.516" height="2.003" transform="translate(16.277 28.38)" opacity="0.1"/>
      <rect id="Rectangle_2002" data-name="Rectangle 2002" width="41.735" height="23.038" transform="translate(42.403 24.039)" fill="#65617d"/>
      <rect id="Rectangle_2003" data-name="Rectangle 2003" width="12.688" height="2.671" transform="translate(57.094 28.046)" opacity="0.1"/>
      <rect id="Rectangle_2004" data-name="Rectangle 2004" width="9.516" height="2.003" transform="translate(58.68 28.38)" opacity="0.1"/>
      <rect id="Rectangle_2005" data-name="Rectangle 2005" width="41.735" height="23.038" transform="translate(42.403)" fill="#65617d"/>
      <rect id="Rectangle_2006" data-name="Rectangle 2006" width="12.688" height="2.671" transform="translate(57.094 4.007)" opacity="0.1"/>
      <rect id="Rectangle_2007" data-name="Rectangle 2007" width="9.516" height="2.003" transform="translate(58.68 4.34)" opacity="0.1"/>
    </g>
    <g id="Group_393" data-name="Group 393" transform="translate(132.217 61.187)" opacity="0.7">
      <rect id="Rectangle_2008" data-name="Rectangle 2008" width="41.735" height="23.038" transform="translate(0 71.785)" fill="#65617d"/>
      <rect id="Rectangle_2009" data-name="Rectangle 2009" width="12.688" height="2.671" transform="translate(14.691 75.791)" opacity="0.1"/>
      <rect id="Rectangle_2010" data-name="Rectangle 2010" width="9.516" height="2.003" transform="translate(16.277 76.125)" opacity="0.1"/>
      <rect id="Rectangle_2011" data-name="Rectangle 2011" width="41.735" height="23.038" transform="translate(42.403 71.785)" fill="#65617d"/>
      <rect id="Rectangle_2012" data-name="Rectangle 2012" width="12.688" height="2.671" transform="translate(57.094 75.791)" opacity="0.1"/>
      <rect id="Rectangle_2013" data-name="Rectangle 2013" width="9.516" height="2.003" transform="translate(58.68 76.125)" opacity="0.1"/>
      <rect id="Rectangle_2014" data-name="Rectangle 2014" width="41.735" height="23.038" transform="translate(0 48.079)" fill="#65617d"/>
      <rect id="Rectangle_2015" data-name="Rectangle 2015" width="12.688" height="2.671" transform="translate(14.691 52.086)" opacity="0.1"/>
      <rect id="Rectangle_2016" data-name="Rectangle 2016" width="9.516" height="2.003" transform="translate(16.277 52.419)" opacity="0.1"/>
      <rect id="Rectangle_2017" data-name="Rectangle 2017" width="41.735" height="23.038" transform="translate(42.403 48.079)" fill="#65617d"/>
      <rect id="Rectangle_2018" data-name="Rectangle 2018" width="12.688" height="2.671" transform="translate(57.094 52.086)" opacity="0.1"/>
      <rect id="Rectangle_2019" data-name="Rectangle 2019" width="9.516" height="2.003" transform="translate(58.68 52.419)" opacity="0.1"/>
      <rect id="Rectangle_2020" data-name="Rectangle 2020" width="41.735" height="23.038" transform="translate(0 24.039)" fill="#65617d"/>
      <rect id="Rectangle_2021" data-name="Rectangle 2021" width="12.688" height="2.671" transform="translate(14.691 28.046)" opacity="0.1"/>
      <rect id="Rectangle_2022" data-name="Rectangle 2022" width="9.516" height="2.003" transform="translate(16.277 28.38)" opacity="0.1"/>
      <rect id="Rectangle_2023" data-name="Rectangle 2023" width="41.735" height="23.038" transform="translate(42.403 24.039)" fill="#65617d"/>
      <rect id="Rectangle_2024" data-name="Rectangle 2024" width="12.688" height="2.671" transform="translate(57.094 28.046)" opacity="0.1"/>
      <rect id="Rectangle_2025" data-name="Rectangle 2025" width="9.516" height="2.003" transform="translate(58.68 28.38)" opacity="0.1"/>
      <rect id="Rectangle_2026" data-name="Rectangle 2026" width="41.735" height="23.038" transform="translate(42.403)" fill="#65617d"/>
      <rect id="Rectangle_2027" data-name="Rectangle 2027" width="12.688" height="2.671" transform="translate(57.094 4.007)" opacity="0.1"/>
      <rect id="Rectangle_2028" data-name="Rectangle 2028" width="9.516" height="2.003" transform="translate(58.68 4.34)" opacity="0.1"/>
    </g>
    <path id="Path_2053" data-name="Path 2053" d="M856.265,124.407s-28.109-1.7-24.8,18a4.787,4.787,0,0,0,2.5,5.062s.05-1.459,2.885-.962a13.188,13.188,0,0,0,3.055.147,6.364,6.364,0,0,0,3.733-1.543h0s7.9-3.265,10.975-16.18c0,0,2.274-2.818,2.184-3.542l-4.744,2.027s1.623,3.422.334,6.267c0,0-.154-6.143-1.065-6.01-.184.03-2.464,1.185-2.464,1.185s2.788,5.96.684,10.294c0,0,.8-7.345-1.556-9.863l-3.339,1.95s3.259,6.157,1.048,11.182c0,0,.568-7.706-1.753-10.708l-3.025,2.361s3.062,6.07,1.2,10.237c0,0-.244-8.971-1.85-9.649,0,0-2.648,2.337-3.052,3.292,0,0,2.1,4.407.795,6.731,0,0-.8-5.976-1.452-6.01,0,0-2.638,3.96-2.911,6.678a14.4,14.4,0,0,1,2.274-7.055,7.937,7.937,0,0,0-4.04,2.093s.411-2.8,4.691-3.045c0,0,2.18-3,2.761-3.189,0,0-4.254-.354-6.835.788,0,0,2.27-2.641,7.616-1.439l2.988-2.441s-5.6-.765-7.98.08c0,0,2.734-2.337,8.784-.631l3.259-1.93s-4.778-1.028-7.622-.668c0,0,3-1.619,8.577.137l2.337-1.045s-3.5-.688-4.524-.8-1.078-.391-1.078-.391a12.136,12.136,0,0,1,6.574.731S856.352,124.717,856.265,124.407Z" transform="translate(-563.02 -124.37)" fill="#f47720" opacity="0.1"/>
    <path id="Path_2054" data-name="Path 2054" d="M779.86,139.457s-12.687-.768-11.2,8.137a2.173,2.173,0,0,0,1.125,2.287s.023-.668,1.305-.437a5.847,5.847,0,0,0,1.379.067,2.862,2.862,0,0,0,1.686-.7h0s3.573-1.472,4.961-7.309c0,0,1.025-1.275.985-1.6l-2.143.915a3.844,3.844,0,0,1,.157,2.835s-.07-2.778-.481-2.711c-.083,0-1.115.534-1.115.534s1.262,2.694.311,4.654c0,0,.361-3.319-.7-4.457l-1.509.881s1.476,2.781.474,5.052c0,0,.257-3.482-.791-4.838l-1.366,1.065s1.382,2.744.541,4.628c0,0-.11-4.057-.838-4.361a8.374,8.374,0,0,0-1.379,1.489s.948,2,.361,3.038c0,0-.361-2.7-.668-2.711a9.059,9.059,0,0,0-1.316,3,6.528,6.528,0,0,1,1.028-3.189,3.592,3.592,0,0,0-1.826.945s.187-1.262,2.12-1.376a9.127,9.127,0,0,1,1.249-1.439,7.829,7.829,0,0,0-3.088.357s1.025-1.2,3.442-.651l1.336-1.1a11.521,11.521,0,0,0-3.606.037s1.235-1.055,3.97-.287l1.469-.878a13.2,13.2,0,0,0-3.446-.3,5.271,5.271,0,0,1,3.876.06l1.052-.471s-1.583-.314-2.047-.361-.487-.177-.487-.177a5.472,5.472,0,0,1,2.971.334A13.489,13.489,0,0,0,779.86,139.457Z" transform="translate(-521.286 -134.408)" fill="#f47720" opacity="0.1"/>
    <ellipse id="Ellipse_33" data-name="Ellipse 33" cx="13.425" cy="2.27" rx="13.425" ry="2.27" transform="translate(61.427 210.733)" fill="#f47720"/>
    <path id="Path_2055" data-name="Path 2055" d="M244.05,738.864a3.886,3.886,0,0,0,1.279-1.933,1.724,1.724,0,0,0-.895-1.967c-.821-.314-1.7.257-2.364.831a3.156,3.156,0,0,1-2.3,1.109,3.506,3.506,0,0,0,1.082-3.275,1.375,1.375,0,0,0-.3-.668c-.457-.488-1.282-.281-1.83.1-1.736,1.222-2.22,3.583-2.23,5.7a10.72,10.72,0,0,1-.03-2.337,2.408,2.408,0,0,0-.885-2.08,2.642,2.642,0,0,0-1.336-.314,2.773,2.773,0,0,0-2.18.621,2.152,2.152,0,0,0,.083,2.671,8.5,8.5,0,0,0,2.26,1.81,5.007,5.007,0,0,1,1.613,1.539,1.39,1.39,0,0,1,.12.277h4.895a13.611,13.611,0,0,0,3.015-2.09Z" transform="translate(-163.645 -529.574)" fill="#f47720"/>
    <path id="Path_2056" data-name="Path 2056" d="M721.473,463.747a1.519,1.519,0,0,0-.831-1.2,1.553,1.553,0,0,0-2.057.868l-7.416,15.6L709.5,540.457h2.671l1-61.3,8.16-14.444A1.586,1.586,0,0,0,721.473,463.747Z" transform="translate(-481.96 -349.556)" fill="#3f3d56"/>
    <path id="Path_2057" data-name="Path 2057" d="M599.6,722.336a48.33,48.33,0,0,1-7.038,5.112,1.171,1.171,0,0,1-.13.154,2.173,2.173,0,0,1-.918.461h0a54.96,54.96,0,0,1-27.071,6.951H380.869C359.834,732.85,347,729.982,347,726.833c0-2.441,7.706-4.714,20.974-6.617q2.063-.3,4.3-.581,1.379-.174,2.821-.334l1.633-.19q1.816-.207,3.729-.4h.1l1.336-.134q1.693-.175,3.456-.334l.855-.077,2.18-.194q2.123-.19,4.34-.364,1.84-.144,3.739-.287c12.841-.952,27.645-1.669,43.755-2.134l4.6-.157,1.549-.033,3.272-.073,1.312-.027,1.379-.027.982-.017,4.608-.073,2.367-.033h.484q8.4-.1,17.108-.1c11.479,0,22.61.137,33.218.4h0q9.135.22,17.712.561h.053c16.487.648,31.245,1.6,43.458,2.788l.224.023c3.135.3,6.1.628,8.888.962,2.621.314,5.082.644,7.365.982.791.117,1.559.237,2.307.354l.19.033C594.47,721.251,597.248,721.772,599.6,722.336Z" transform="translate(-240.492 -517.559)" fill="#f47720" opacity="0.1"/>
    <path id="Path_2058" data-name="Path 2058" d="M846.79,434.986a1.161,1.161,0,0,1-.13.154,2.174,2.174,0,0,1-.918.461h0a9.256,9.256,0,0,1-2.07.334h-.21a8.987,8.987,0,0,1-1.2-.04,5.565,5.565,0,0,0-.878-.057h-.04a6.242,6.242,0,0,0-1.252.311,11.1,11.1,0,0,1-2.771.394h-.334c-1.048,0-2.11-.037-3.162-.03h-.511c-1.8.047-3.6.334-5.4.364h-.578a8.5,8.5,0,0,1-4.978-1.489,1.966,1.966,0,0,1-.668-.748,2.1,2.1,0,0,1-.117-1,2.357,2.357,0,0,1,.6-1.669,2.626,2.626,0,0,1,.962-.464c.611-.2,1.225-.387,1.836-.578s1.309-.394,1.967-.588l.127-.04.367-.11.237-.08a3.883,3.883,0,0,0,.821-.374,2.722,2.722,0,0,0,.845-.845c.037-.06.077-.124.11-.187s0-.1-.023-.157c-.057-.417-.1-.845-.174-1.252a5.008,5.008,0,0,1-2.467-1.4,7.933,7.933,0,0,1-1.439-1.947,40.78,40.78,0,0,1-1.88-4.968,44.268,44.268,0,0,0-3.733-7.165c-1.275-2.13-2.557-4.267-4.007-6.28-.965-1.336-2-2.608-2.958-3.947a35.057,35.057,0,0,1-5.7-12.454,16.486,16.486,0,0,0-.691-2.531,25.728,25.728,0,0,0-2.441-3.826,12.668,12.668,0,0,1-1.766-4.531c-.167-.915-.447-1.9-1.359-2h0l-.1.19c-1.89,3.673-3.83,7.412-6.678,10.41a11.025,11.025,0,0,0-1.245,1.432,13.773,13.773,0,0,0-.8,1.543,10.015,10.015,0,0,1-1.773,2.594,5.056,5.056,0,0,1-.7.591,3.77,3.77,0,0,1-1.1.551h0a3.248,3.248,0,0,1-.474.107c0,.04.017.077.02.117s.02.087.027.13a15.692,15.692,0,0,1-.611,7.99c-.023.08-.05.157-.08.237q-.207.561-.451,1.1c-.407.885-.891,1.733-1.272,2.631-.063.154-.127.307-.184.461-1.335,3.576-1,7.569-1.175,11.412a12.574,12.574,0,0,1-.3,2.5c-.227.925-.591,1.88-.791,2.835a4.8,4.8,0,0,0-.043,2.187l-.08.03c-.357.134-.721.254-1.085.367v.05c.13.748.257,1.5.387,2.24a3.279,3.279,0,0,0,.688,1.79,2.455,2.455,0,0,1,.334.334c.264.414.03.962.08,1.452.073.694.714,1.285.614,1.977a1.3,1.3,0,0,1-.781.928,2.309,2.309,0,0,1-.514.164l-.11.023c-.2.037-.4.057-.6.077a28.011,28.011,0,0,1-7.472.073c-.487-.083-.972-.194-1.466-.234a10.94,10.94,0,0,0-1.87.077,91.814,91.814,0,0,1-13.753.267c-1.192-.067-2.561-.26-3.192-1.279a3.7,3.7,0,0,1-.07-2.9,3.128,3.128,0,0,1,.4-1,.646.646,0,0,1,.073-.093,3.327,3.327,0,0,1,2.765-.781l3.252.1a3.048,3.048,0,0,0,.955-.073,10.054,10.054,0,0,0,1.422-.811c.621-.3,1.4-.334,1.85-.841l.057-.073a3.991,3.991,0,0,0,.22-.334c0-.023.03-.047.047-.07h0a.627.627,0,0,1,.04-.06,5.284,5.284,0,0,1,1.713-1.065,1.76,1.76,0,0,0,.25-.177l.067-.06a6.85,6.85,0,0,1-1.623-1.633,1.639,1.639,0,0,1-.371-.648.938.938,0,0,1,.04-.544.817.817,0,0,1,.053-.124l.017-.033c.227-.447.695-.851.952-1.309a.206.206,0,0,0,.023-.047,2.063,2.063,0,0,0-.1-2.24c.267-4.4,1.476-8.681,1.743-13.092.107-1.746.063-3.5.144-5.252s.267-3.452.464-5.172c.441-3.93,1.509-7.779,1.359-11.726a7.138,7.138,0,0,1,.047-1.1.651.651,0,0,1,0-.08,6.772,6.772,0,0,1,.745-2.31,17.747,17.747,0,0,1,1.639-2.31c2.053-2.671,4.521-5.342,5.252-8.628a18.652,18.652,0,0,1,2.043-4.775,8.414,8.414,0,0,1,1.786-2.507,7.84,7.84,0,0,0,1.179-1,9.419,9.419,0,0,0,.891-2.527c.167-.437.424-.838.551-1.289a.677.677,0,0,1,.033-.137,9.055,9.055,0,0,0,.117-1.376,3.08,3.08,0,0,1,.037-.394h0a13.951,13.951,0,0,1,1.138-3.816c.07-.154.137-.311.2-.464a14.306,14.306,0,0,1-4.007-3.476,8.207,8.207,0,0,1-.972-1.466,18.143,18.143,0,0,1-1.169-4.417c-.775-3.566-2.548-6.925-2.795-10.571a11.69,11.69,0,0,0-.387-3.312,6.621,6.621,0,0,0-.377-.828c-.06-.114-.117-.227-.177-.334l-.067-.127-.17-.334-.274.214a200,200,0,0,1-21.469,14.664l-.641.381a2.338,2.338,0,0,0-.848.695c-.027.043-.05.087-.073.13h0c-.154.317-.194.668-.334,1a2.734,2.734,0,0,1-1.86,1.479,5.743,5.743,0,0,1-4.224-.544,5.1,5.1,0,0,1-.481-.267,6.508,6.508,0,0,1-1.229.524A14.556,14.556,0,0,1,740,344.6a12.365,12.365,0,0,0-4.1.454,10.256,10.256,0,0,1-2.631.835,2.47,2.47,0,0,1-.314,0,4.547,4.547,0,0,1-1.489-.437l-.274-.124a4.448,4.448,0,0,1-.414-.224,2.283,2.283,0,0,1-.4-.317,1.476,1.476,0,0,1-.374-.638,1.058,1.058,0,0,1,0-.531.333.333,0,0,1,.114-.2.36.36,0,0,1,.2-.05,6.006,6.006,0,0,1,1.142.1,4.119,4.119,0,0,0,.668.037h.12a1.449,1.449,0,0,0,1-.568.623.623,0,0,0,.087-.16h0a.74.74,0,0,0,.06-.3.529.529,0,0,0,0-.077c-.14-.063-.28-.127-.414-.2-.07-.037-.137-.077-.2-.117l-.04-.027a2.275,2.275,0,0,1-.334-.277,1.17,1.17,0,0,1-.17-.214,1.279,1.279,0,0,1-.2-.4h0a1.794,1.794,0,0,0-.831.023c-.364.1-.731.314-1.092.387a.968.968,0,0,1-.551-.023c-.521-.187-.7-.821-.815-1.366-.02-.1-.043-.21-.06-.317h0a1.686,1.686,0,0,1,0-.621,2.287,2.287,0,0,1,.878-1.145l1.1-.918.08-.067a1.93,1.93,0,0,0-.05-.27,1.707,1.707,0,0,1,0-.624,2.277,2.277,0,0,1,.878-1.142l2.424-2.04a2.848,2.848,0,0,1,1.539-.821c.878-.06,1.579.668,2.237,1.252a5.078,5.078,0,0,0,2.938,1.409,4.317,4.317,0,0,0,1.553-.214l.284-.093c-.06-.124-.12-.247-.177-.371-.1-.2-.194-.411-.287-.618a6.631,6.631,0,0,0,3.793-1.806c1.078-.935,2-2.04,3.092-2.958,1.175-1,2.524-1.746,3.716-2.711,2.771-2.247,4.611-5.549,7.576-7.529a9.841,9.841,0,0,0,2.918-2.27c.217-.334.381-.668.6-1,.711-1,1.93-1.462,2.935-2.157a14.594,14.594,0,0,0,2.7-2.691c.581-.7,1.165-1.4,1.72-2.113.511-.952.942-1.947,1.476-2.885a14.163,14.163,0,0,1,1.579-2.23c.137-.267.277-.534.427-.795s.26-.437.4-.668c.1-.15.2-.294.3-.441-.3-.538-.594-1-.731-1.205l-.067-.09a10.011,10.011,0,0,0-.942-.881,8.911,8.911,0,0,1-1.035-.22,9.739,9.739,0,0,1-7.165-9.405.09.09,0,0,1,0-.03,9.683,9.683,0,0,1,1.062-4.4c.14-.274.29-.538.454-.795a3,3,0,0,1-.444-.18,1.761,1.761,0,0,1-.621-.511,1.48,1.48,0,0,1-.257-.648,3.3,3.3,0,0,1,.24-1.616,7.682,7.682,0,0,1,.31-.721.272.272,0,0,0,.023-.043,9.279,9.279,0,0,1,7.853-4.982c3.429-.137,6.768,1.472,9.472,3.776a12.688,12.688,0,0,1,2.15,2.26,13.677,13.677,0,0,1,2.237,6.961,10.681,10.681,0,0,1-.04,2.31,5.5,5.5,0,0,1-.167.808c-.043.157-.1.314-.16.471a3.071,3.071,0,0,1-.15.334v.017c-.05.107-.107.207-.164.307l-.03.043-.043.07c.027.063.057.13.087.194s.057.124.09.184h.04c.668.053,1.285.147,1.967.2a4.522,4.522,0,0,1,.948.147,6.34,6.34,0,0,1,1.733,1.082c1.389.982,3.1,1.439,4.464,2.454,2,1.5,3.005,3.967,4.22,6.18,1.6,2.965,4.214,5.489,5.365,8.661q.781,2.16,1.569,4.314a67.221,67.221,0,0,0,3.442,8.3c1.937,3.693,4.558,7.012,6.11,10.891a1.736,1.736,0,0,0,.815.9,70.87,70.87,0,0,1,5.626,9.412,17.649,17.649,0,0,1,1.92,5.452,13.154,13.154,0,0,1-.417,5.1,24.731,24.731,0,0,1-.978,2.891,4.777,4.777,0,0,0-.334,1.032v.11a9.42,9.42,0,0,0,.244,1.916,3.546,3.546,0,0,1-.17,1.529c-.027.077-.057.154-.087.23a8.233,8.233,0,0,0-.524,1.215,1.248,1.248,0,0,0-.027.154,6.192,6.192,0,0,0,.334,2.18,29.261,29.261,0,0,1,.334,8.013c-.077,1.336,1,2.407,1.9,3.392A36.544,36.544,0,0,1,830,385.237a19.723,19.723,0,0,1,1.726,3.452,28.87,28.87,0,0,1,.932,4.257c.851,4.407,3.633,8.3,4.387,12.718a11.352,11.352,0,0,0,2.581,5.469,11.612,11.612,0,0,1,1.112,1.336,5.359,5.359,0,0,1,.551,1.2,8.913,8.913,0,0,1,.457,3.048,4.582,4.582,0,0,0,.083,1.482c.314,1.025,1.436,1.589,1.9,2.554s.144,2.2.334,3.3a3.556,3.556,0,0,0,1.336,2.224c-.267.234-.548.447-.835.668a3.34,3.34,0,0,1,.691.728,3.281,3.281,0,0,1,.334.591c.441,1.025.454,2.244.815,3.339a2.4,2.4,0,0,1,.237,1.4,1.531,1.531,0,0,0-.113.414c0,.3.314.5.434.771a.828.828,0,0,1-.174.8Z" transform="translate(-494.719 -225.097)" fill="url(#linear-gradient)"/>
    <path id="Path_2059" data-name="Path 2059" d="M863.324,334.27a20.862,20.862,0,0,0,5.646-2.841l6.214-3.957a5.4,5.4,0,0,1-4.007-2.791,14.092,14.092,0,0,1-1.516-4.811,25.176,25.176,0,0,0-7.142,4.674c-.855.738-2.671,1.853-2.935,3s1.419,2.087,2.07,2.858C861.878,330.664,863.985,334.087,863.324,334.27Z" transform="translate(-581.915 -254.596)" fill="#fbbebe"/>
    <path id="Path_2060" data-name="Path 2060" d="M863.324,334.27a20.862,20.862,0,0,0,5.646-2.841l6.214-3.957a5.4,5.4,0,0,1-4.007-2.791,14.092,14.092,0,0,1-1.516-4.811,25.176,25.176,0,0,0-7.142,4.674c-.855.738-2.671,1.853-2.935,3s1.419,2.087,2.07,2.858C861.878,330.664,863.985,334.087,863.324,334.27Z" transform="translate(-581.915 -254.596)" opacity="0.1"/>
    <path id="Path_2061" data-name="Path 2061" d="M742.188,457.7a6.91,6.91,0,0,1-3.486,1.055,5.064,5.064,0,0,1-2.935-1.4c-.668-.581-1.356-1.305-2.234-1.245a2.862,2.862,0,0,0-1.536.815l-2.421,2.027a2.278,2.278,0,0,0-.878,1.135,2.25,2.25,0,0,0,.057.942c.11.541.294,1.172.815,1.356s1.088-.21,1.639-.361a1.93,1.93,0,0,1,1.893.558,1.125,1.125,0,0,1,.334.728c0,.6-.668,1-1.282,1.032s-1.2-.17-1.81-.134a.277.277,0,0,0-.31.247,1.276,1.276,0,0,0,.391,1.162,3.389,3.389,0,0,0,1.088.668,4.44,4.44,0,0,0,1.489.434,7.9,7.9,0,0,0,2.938-.831,12.7,12.7,0,0,1,4.1-.451,14.471,14.471,0,0,0,4.11-.364,4.661,4.661,0,0,0,3.1-2.524.608.608,0,0,0,.057-.387.641.641,0,0,0-.28-.334c-1.863-1.379-2.618-3.055-4.714-4.047Z" transform="translate(-494.732 -345.347)" fill="#fbbebe"/>
    <path id="Path_2062" data-name="Path 2062" d="M742.188,457.7a6.91,6.91,0,0,1-3.486,1.055,5.064,5.064,0,0,1-2.935-1.4c-.668-.581-1.356-1.305-2.234-1.245a2.862,2.862,0,0,0-1.536.815l-2.421,2.027a2.278,2.278,0,0,0-.878,1.135,2.25,2.25,0,0,0,.057.942c.11.541.294,1.172.815,1.356s1.088-.21,1.639-.361a1.93,1.93,0,0,1,1.893.558,1.125,1.125,0,0,1,.334.728c0,.6-.668,1-1.282,1.032s-1.2-.17-1.81-.134a.277.277,0,0,0-.31.247,1.276,1.276,0,0,0,.391,1.162,3.389,3.389,0,0,0,1.088.668,4.44,4.44,0,0,0,1.489.434,7.9,7.9,0,0,0,2.938-.831,12.7,12.7,0,0,1,4.1-.451,14.471,14.471,0,0,0,4.11-.364,4.661,4.661,0,0,0,3.1-2.524.608.608,0,0,0,.057-.387.641.641,0,0,0-.28-.334c-1.863-1.379-2.618-3.055-4.714-4.047Z" transform="translate(-494.732 -345.347)" opacity="0.1"/>
    <path id="Path_2063" data-name="Path 2063" d="M804.031,352.946a4.027,4.027,0,0,0-3.532-.411,7.627,7.627,0,0,0-3.042,2.027,13.992,13.992,0,0,0-2.147,2.835c-.568,1-1,2.05-1.569,3.048a32.424,32.424,0,0,1-3.626,4.925,13.983,13.983,0,0,1-2.694,2.671c-1.048.715-2.22,1.152-2.931,2.143-.224.314-.384.668-.6.985a9.7,9.7,0,0,1-2.915,2.254c-2.958,1.97-4.8,5.249-7.562,7.482-1.192.962-2.537,1.716-3.709,2.7-1.092.911-2,2-3.092,2.938a6.613,6.613,0,0,1-3.786,1.793,19.5,19.5,0,0,0,3.706,5.833,6.609,6.609,0,0,0,6.284,2.053,2.73,2.73,0,0,0,1.86-1.469,6.278,6.278,0,0,1,.394-1.139,2.338,2.338,0,0,1,.845-.691,199.593,199.593,0,0,0,25.412-17.606c2.147-1.75,4.277-3.315,6.481-5.008a14.167,14.167,0,0,0,2.18-1.91,7.259,7.259,0,0,0,.881-8,18.965,18.965,0,0,0-2.023-2.741A24.088,24.088,0,0,0,804.031,352.946Z" transform="translate(-517.477 -276.2)" fill="#f47720"/>
    <path id="Path_2064" data-name="Path 2064" d="M804.031,352.946a4.027,4.027,0,0,0-3.532-.411,7.627,7.627,0,0,0-3.042,2.027,13.992,13.992,0,0,0-2.147,2.835c-.568,1-1,2.05-1.569,3.048a32.424,32.424,0,0,1-3.626,4.925,13.983,13.983,0,0,1-2.694,2.671c-1.048.715-2.22,1.152-2.931,2.143-.224.314-.384.668-.6.985a9.7,9.7,0,0,1-2.915,2.254c-2.958,1.97-4.8,5.249-7.562,7.482-1.192.962-2.537,1.716-3.709,2.7-1.092.911-2,2-3.092,2.938a6.613,6.613,0,0,1-3.786,1.793,19.5,19.5,0,0,0,3.706,5.833,6.609,6.609,0,0,0,6.284,2.053,2.73,2.73,0,0,0,1.86-1.469,6.278,6.278,0,0,1,.394-1.139,2.338,2.338,0,0,1,.845-.691,199.593,199.593,0,0,0,25.412-17.606c2.147-1.75,4.277-3.315,6.481-5.008a14.167,14.167,0,0,0,2.18-1.91,7.259,7.259,0,0,0,.881-8,18.965,18.965,0,0,0-2.023-2.741A24.088,24.088,0,0,0,804.031,352.946Z" transform="translate(-517.477 -276.2)" opacity="0.1"/>
    <path id="Path_2065" data-name="Path 2065" d="M817.247,720.925a5.109,5.109,0,0,0-1.713,1.062c-.134.174-.224.377-.367.544-.444.521-1.232.544-1.85.841a8.971,8.971,0,0,1-1.419.8,3.08,3.08,0,0,1-.958.073l-3.245-.1c-1.028-.03-2.234.023-2.831.861a3.06,3.06,0,0,0-.407,1,3.715,3.715,0,0,0,.07,2.885c.628,1,2,1.205,3.189,1.272a92.032,92.032,0,0,0,13.736-.267,10.862,10.862,0,0,1,1.863-.077c.494.04.978.15,1.466.234a28.074,28.074,0,0,0,7.462-.073,3.9,3.9,0,0,0,1.225-.26,1.3,1.3,0,0,0,.778-.925c.1-.688-.541-1.272-.611-1.963-.05-.487.184-1.032-.083-1.446a2.388,2.388,0,0,0-.334-.334,3.286,3.286,0,0,1-.688-1.776l-.584-3.429a1.055,1.055,0,0,0-.281-.648.966.966,0,0,0-.414-.17c-2.544-.574-5.152-.05-7.679.271a20.639,20.639,0,0,1-3.93.2c-.568-.037-.788-.1-1.212.267S817.778,720.614,817.247,720.925Z" transform="translate(-545.04 -520.318)" fill="#3f3d56"/>
    <path id="Path_2066" data-name="Path 2066" d="M1013.468,729.761a5.628,5.628,0,0,1-1.422.557q-1.967.574-3.927,1.2a2.6,2.6,0,0,0-.958.461,2.33,2.33,0,0,0-.6,1.669,2.092,2.092,0,0,0,.117,1,2,2,0,0,0,.668.741,8.765,8.765,0,0,0,5.325,1.482c1.876,0,3.74-.317,5.616-.367,2.267-.06,4.594.26,6.774-.374a5.774,5.774,0,0,1,1.289-.314,5.489,5.489,0,0,1,.875.057,9.275,9.275,0,0,0,3.479-.317,2.139,2.139,0,0,0,.922-.457.861.861,0,0,0,.247-.942c-.12-.27-.427-.467-.431-.765a1.436,1.436,0,0,1,.11-.414,2.345,2.345,0,0,0-.237-1.386c-.431-1.289-.361-2.771-1.132-3.89a4.927,4.927,0,0,0-3.533-1.756,9.8,9.8,0,0,0-3.289.093c-1.219.26-2.357.8-3.552,1.152a11.62,11.62,0,0,1-4.274.4c-.955-.08-.628.07-.951.871a2.842,2.842,0,0,1-1.112,1.292Z" transform="translate(-679.823 -525.028)" fill="#3f3d56"/>
    <circle id="Ellipse_34" data-name="Ellipse 34" cx="9.683" cy="9.683" r="9.683" transform="translate(270.611 55.678)" fill="#fbbebe"/>
    <path id="Path_2067" data-name="Path 2067" d="M918.2,460.678a17.157,17.157,0,0,1-11.018,3.749,9.049,9.049,0,0,1-4.825-1.028c-.1-.548-.14-1.139-.24-1.686a6.157,6.157,0,0,1-3.9-3.322,39.943,39.943,0,0,1-1.88-4.935,44.091,44.091,0,0,0-3.726-7.122c-1.276-2.117-2.554-4.24-4.007-6.24-.962-1.336-2-2.591-2.955-3.923a34.723,34.723,0,0,1-5.693-12.374,16.182,16.182,0,0,0-.691-2.514,25.6,25.6,0,0,0-2.437-3.8,12.566,12.566,0,0,1-1.766-4.5c-.164-.908-.444-1.89-1.356-1.983h0c-1.916,3.723-3.87,7.506-6.768,10.534a10.922,10.922,0,0,0-1.245,1.422,13.673,13.673,0,0,0-.8,1.536,9.9,9.9,0,0,1-1.77,2.578,4.127,4.127,0,0,1-2.277,1.242,15.572,15.572,0,0,1-1.1,9.516c-.4.881-.888,1.723-1.269,2.614-1.556,3.673-1.2,7.816-1.359,11.8a12.405,12.405,0,0,1-.294,2.481c-.4,1.629-1.239,3.362-.835,4.992-4.187,1.6-8.838,1.5-13.272.825a6.4,6.4,0,0,1-2.474-.751,6.809,6.809,0,0,1-1.623-1.623,1.625,1.625,0,0,1-.371-.644c-.174-.761.668-1.336,1.058-2a2.025,2.025,0,0,0-.077-2.274c.267-4.371,1.476-8.638,1.743-13.021.107-1.736.063-3.479.144-5.219s.267-3.432.461-5.142c.441-3.9,1.509-7.729,1.359-11.652a6.778,6.778,0,0,1,.8-3.469,17.5,17.5,0,0,1,1.636-2.3c2.05-2.648,4.514-5.3,5.245-8.571a18.559,18.559,0,0,1,2.04-4.744,8.4,8.4,0,0,1,1.783-2.494,7.816,7.816,0,0,0,1.179-1,9.267,9.267,0,0,0,.891-2.511c.167-.434.424-.835.548-1.282a7.312,7.312,0,0,0,.15-1.5,14.058,14.058,0,0,1,1.382-4.658,14.267,14.267,0,0,1-4.007-3.452,8.445,8.445,0,0,1-.968-1.459,17.909,17.909,0,0,1-1.169-4.387c-.771-3.546-2.544-6.881-2.791-10.5a11.67,11.67,0,0,0-.384-3.292,10.352,10.352,0,0,0-.621-1.285,5.261,5.261,0,0,1-.527-1.3,22.542,22.542,0,0,1,0-3,21.71,21.71,0,0,0-.644-2.578,12.241,12.241,0,0,1-.1-3.406,27.892,27.892,0,0,0,.26-4.033,15.582,15.582,0,0,1,4.19-12l.077-.077c.638-.668,1.336-1.259,1.91-1.967.781-.948,1.336-2.063,2.16-2.985.361-.411.768-.778,1.125-1.192a9.9,9.9,0,0,1,1.085-1.215,1.669,1.669,0,0,1,1.509-.4,4.183,4.183,0,0,0,.461,1.422c.695.053,1.312.15,2,.2a4.526,4.526,0,0,1,.948.147,6.169,6.169,0,0,1,1.729,1.072c1.389.978,3.1,1.432,4.461,2.441,2,1.486,3,3.94,4.214,6.14,1.6,2.948,4.207,5.456,5.342,8.607l1.566,4.287a66.961,66.961,0,0,0,3.439,8.244c1.933,3.673,4.551,6.981,6.1,10.824a1.743,1.743,0,0,0,.811.895,69.828,69.828,0,0,1,5.619,9.349,17.4,17.4,0,0,1,1.916,5.419,15.771,15.771,0,0,1-1.392,7.936,4.138,4.138,0,0,0-.334,1.135,9.288,9.288,0,0,0,.244,1.9,3.521,3.521,0,0,1-.257,1.75,8.019,8.019,0,0,0-.524,1.209,5.263,5.263,0,0,0,.314,2.317,28.863,28.863,0,0,1,.334,7.96c-.077,1.336,1,2.394,1.9,3.372a36.075,36.075,0,0,1,4.23,6.117,19.764,19.764,0,0,1,1.723,3.432,28.441,28.441,0,0,1,.932,4.23c.848,4.377,3.626,8.247,4.381,12.637a11.229,11.229,0,0,0,2.578,5.432,11.83,11.83,0,0,1,1.112,1.336,5.375,5.375,0,0,1,.548,1.2,8.8,8.8,0,0,1,.457,3.028,4.524,4.524,0,0,0,.083,1.472c.314,1.018,1.436,1.579,1.9,2.538s.144,2.187.334,3.275a3.526,3.526,0,0,0,1.319,2.217Z" transform="translate(-567.709 -259.408)" fill="#f47720"/>
    <path id="Path_2068" data-name="Path 2068" d="M748.188,448.7a6.909,6.909,0,0,1-3.486,1.055,5.064,5.064,0,0,1-2.935-1.4c-.668-.581-1.356-1.305-2.234-1.245a2.862,2.862,0,0,0-1.536.815l-2.421,2.027a2.277,2.277,0,0,0-.878,1.135,2.251,2.251,0,0,0,.057.942c.11.541.294,1.172.815,1.356s1.089-.21,1.639-.361a1.93,1.93,0,0,1,1.893.558,1.125,1.125,0,0,1,.334.728c0,.6-.668,1-1.282,1.032s-1.2-.17-1.81-.134a.277.277,0,0,0-.311.247,1.276,1.276,0,0,0,.391,1.162,3.389,3.389,0,0,0,1.088.668,4.441,4.441,0,0,0,1.489.434,7.9,7.9,0,0,0,2.938-.831,12.7,12.7,0,0,1,4.1-.451,14.473,14.473,0,0,0,4.11-.364,4.662,4.662,0,0,0,3.1-2.524.608.608,0,0,0,.057-.387.641.641,0,0,0-.28-.334c-1.863-1.379-2.618-3.055-4.714-4.047Z" transform="translate(-498.728 -339.352)" fill="#fbbebe"/>
    <path id="Path_2069" data-name="Path 2069" d="M843.8,286.56a8.283,8.283,0,0,0-1.616.7,2.785,2.785,0,0,1-2.284-.12,1.763,1.763,0,0,1-.624-.507,2.471,2.471,0,0,1-.017-2.25,9.177,9.177,0,0,1,8.18-5.709,14.161,14.161,0,0,1,9.459,3.749,12.921,12.921,0,0,1,2.147,2.247,13.572,13.572,0,0,1,2.234,6.918,9.015,9.015,0,0,1-.2,3.1,3.767,3.767,0,0,1-1.756,2.367,3.469,3.469,0,0,1-3.065-.134,12.928,12.928,0,0,1-2.621-1.91,3.892,3.892,0,0,0-1.305-.831,1.335,1.335,0,0,0-1.412.334c-.447.538-.334,1.419-.741,2a2.332,2.332,0,0,1-1.97.668,2.169,2.169,0,0,1-1.866-.628,2.348,2.348,0,0,1-.187-1.913,6.266,6.266,0,0,0,.334-1.953c-.137-1.336-1.305-2.157-1.669-3.386-.237-.8.284-1.145.23-1.873A1.051,1.051,0,0,0,843.8,286.56Z" transform="translate(-568.22 -227.149)" fill="#3f3d56"/>
    <path id="Path_2070" data-name="Path 2070" d="M918.561,532.834v.083h0c-1.917,3.723-3.87,7.506-6.768,10.534a10.916,10.916,0,0,0-1.245,1.422,13.686,13.686,0,0,0-.8,1.536,9.9,9.9,0,0,1-1.77,2.578L905.56,550.2l7.679-40.066Z" transform="translate(-612.559 -381.331)" opacity="0.1"/>
    <path id="Path_2071" data-name="Path 2071" d="M880.638,364.377a14.17,14.17,0,0,1-2.18,1.91c-2.2,1.669-4.34,3.245-6.481,5.008q-2.588,2.107-5.249,4.127a5.258,5.258,0,0,1-.527-1.3,22.553,22.553,0,0,1,0-3,21.7,21.7,0,0,0-.644-2.578,12.245,12.245,0,0,1-.1-3.406,27.883,27.883,0,0,0,.26-4.033,15.582,15.582,0,0,1,4.21-12.023l.077-.077a5.865,5.865,0,0,1,1.135-.507,4.027,4.027,0,0,1,3.532.427,24.092,24.092,0,0,1,4.808,4.714,18.971,18.971,0,0,1,2.023,2.741A7.258,7.258,0,0,1,880.638,364.377Z" transform="translate(-585.797 -273.514)" opacity="0.1"/>
    <path id="Path_2072" data-name="Path 2072" d="M810.031,343.946a4.027,4.027,0,0,0-3.533-.411,7.626,7.626,0,0,0-3.042,2.027,14,14,0,0,0-2.147,2.835c-.568,1-1,2.05-1.569,3.048a32.418,32.418,0,0,1-3.626,4.925,13.98,13.98,0,0,1-2.694,2.671c-1.048.715-2.22,1.152-2.931,2.144-.224.314-.384.668-.6.985a9.7,9.7,0,0,1-2.915,2.254c-2.958,1.97-4.8,5.249-7.562,7.482-1.192.962-2.538,1.716-3.709,2.7-1.092.911-2,2-3.092,2.938a6.612,6.612,0,0,1-3.786,1.793,19.5,19.5,0,0,0,3.706,5.833,6.609,6.609,0,0,0,6.284,2.053,2.73,2.73,0,0,0,1.86-1.469,6.273,6.273,0,0,1,.394-1.139,2.337,2.337,0,0,1,.845-.691,199.6,199.6,0,0,0,25.412-17.606c2.147-1.75,4.277-3.315,6.481-5.008a14.168,14.168,0,0,0,2.18-1.91,7.258,7.258,0,0,0,.881-8,18.96,18.96,0,0,0-2.023-2.741,24.088,24.088,0,0,0-4.808-4.714Z" transform="translate(-521.474 -270.205)" fill="#f47720"/>
    <g id="Group_394" data-name="Group 394" transform="translate(270.774 55.822)" opacity="0.1">
      <path id="Path_2073" data-name="Path 2073" d="M848.868,304.428A2.218,2.218,0,0,1,847,303.8a2.362,2.362,0,0,1-.187-1.913,6.264,6.264,0,0,0,.334-1.953c-.137-1.336-1.305-2.157-1.669-3.386-.237-.8.284-1.145.23-1.873a1.057,1.057,0,0,0-1.249-.861,8.282,8.282,0,0,0-1.616.7,2.785,2.785,0,0,1-2.284-.12,1.764,1.764,0,0,1-.624-.508,2.471,2.471,0,0,1-.017-2.25c0-.027.023-.05.033-.077a8.065,8.065,0,0,0-.7,1.412,2.472,2.472,0,0,0,.017,2.25,1.764,1.764,0,0,0,.624.508,2.785,2.785,0,0,0,2.284.12,8.279,8.279,0,0,1,1.616-.7,1.057,1.057,0,0,1,1.249.861c.053.728-.467,1.068-.23,1.873.357,1.229,1.526,2.063,1.669,3.386a5.872,5.872,0,0,1-.334,1.953,2.324,2.324,0,0,0,.187,1.913,3.164,3.164,0,0,0,3.836-.04,2.814,2.814,0,0,0,.357-1.025A2.826,2.826,0,0,1,848.868,304.428Z" transform="translate(-838.987 -291.56)"/>
      <path id="Path_2074" data-name="Path 2074" d="M884.271,323.85a3.469,3.469,0,0,1-3.065-.134,12.931,12.931,0,0,1-2.621-1.91,3.9,3.9,0,0,0-1.305-.831,1.336,1.336,0,0,0-1.412.334,2.531,2.531,0,0,0-.417,1.122,1.413,1.413,0,0,1,1.162-.124,3.893,3.893,0,0,1,1.305.831,13.183,13.183,0,0,0,2.621,1.91,3.478,3.478,0,0,0,3.065.134,3.716,3.716,0,0,0,1.713-2.247A3.088,3.088,0,0,1,884.271,323.85Z" transform="translate(-863.276 -311.103)"/>
    </g>
    <circle id="Ellipse_35" data-name="Ellipse 35" cx="10.016" cy="10.016" r="10.016" transform="translate(198.659 192.069)" fill="#3f3d56"/>
    <circle id="Ellipse_36" data-name="Ellipse 36" cx="10.016" cy="10.016" r="10.016" transform="translate(198.659 192.069)" opacity="0.1"/>
    <circle id="Ellipse_37" data-name="Ellipse 37" cx="6.344" cy="6.344" r="6.344" transform="translate(202.332 195.742)" fill="#65617d"/>
    <circle id="Ellipse_38" data-name="Ellipse 38" cx="6.344" cy="6.344" r="6.344" transform="translate(202.332 195.742)" opacity="0.1"/>
    <path id="Path_2075" data-name="Path 2075" d="M630,680.632l6.571,14.858a1.275,1.275,0,0,0,2.314.047l7.809-15.906Z" transform="translate(-429.003 -494.239)" fill="#3f3d56"/>
    <path id="Path_2076" data-name="Path 2076" d="M630,680.632l6.571,14.858a1.275,1.275,0,0,0,2.314.047l7.809-15.906Z" transform="translate(-429.003 -494.239)" opacity="0.1"/>
    <circle id="Ellipse_39" data-name="Ellipse 39" cx="10.016" cy="10.016" r="10.016" transform="translate(136.224 192.069)" fill="#3f3d56"/>
    <circle id="Ellipse_40" data-name="Ellipse 40" cx="10.016" cy="10.016" r="10.016" transform="translate(136.224 192.069)" opacity="0.1"/>
    <circle id="Ellipse_41" data-name="Ellipse 41" cx="6.344" cy="6.344" r="6.344" transform="translate(139.896 195.742)" fill="#65617d"/>
    <circle id="Ellipse_42" data-name="Ellipse 42" cx="6.344" cy="6.344" r="6.344" transform="translate(139.896 195.742)" opacity="0.1"/>
    <path id="Path_2077" data-name="Path 2077" d="M443,680.632l6.571,14.858a1.275,1.275,0,0,0,2.314.047l7.81-15.906Z" transform="translate(-304.439 -494.239)" fill="#3f3d56"/>
    <path id="Path_2078" data-name="Path 2078" d="M443,680.632l6.571,14.858a1.275,1.275,0,0,0,2.314.047l7.81-15.906Z" transform="translate(-304.439 -494.239)" opacity="0.1"/>
    <path id="Path_2079" data-name="Path 2079" d="M729.8,465.747a1.519,1.519,0,0,0-.831-1.2,1.553,1.553,0,0,0-2.057.868l-5.746,14.267L719.5,543.792h2.671l1-63.968,6.491-13.108A1.586,1.586,0,0,0,729.8,465.747Z" transform="translate(-488.621 -350.888)" fill="#3f3d56"/>
    <path id="Path_2080" data-name="Path 2080" d="M368.5,549.771l9.015-5.676,97.327-.835,2.5,6.511Z" transform="translate(-245.465 -361.875)" fill="#f47720"/>
    <path id="Path_2081" data-name="Path 2081" d="M368.5,566.638v-6.01l110.608-1.068L479,563.633H370.5v3Z" transform="translate(-245.465 -372.733)" fill="#3f3d56"/>
    <circle id="Ellipse_43" data-name="Ellipse 43" cx="10.016" cy="10.016" r="10.016" transform="translate(127.042 195.575)" fill="#3f3d56"/>
    <circle id="Ellipse_44" data-name="Ellipse 44" cx="6.344" cy="6.344" r="6.344" transform="translate(130.715 199.248)" fill="#65617d"/>
    <path id="Path_2082" data-name="Path 2082" d="M415.5,691.132l6.571,14.858a1.275,1.275,0,0,0,2.314.047l7.81-15.906Z" transform="translate(-286.121 -501.233)" fill="#3f3d56"/>
    <circle id="Ellipse_45" data-name="Ellipse 45" cx="10.016" cy="10.016" r="10.016" transform="translate(204.836 195.575)" fill="#3f3d56"/>
    <circle id="Ellipse_46" data-name="Ellipse 46" cx="6.344" cy="6.344" r="6.344" transform="translate(208.509 199.248)" fill="#65617d"/>
    <path id="Path_2083" data-name="Path 2083" d="M648.5,691.132l6.571,14.858a1.275,1.275,0,0,0,2.314.047l7.809-15.906Z" transform="translate(-441.327 -501.233)" fill="#3f3d56"/>
    <rect id="Rectangle_2029" data-name="Rectangle 2029" width="41.735" height="23.038" transform="translate(135.556 161.686)" fill="#65617d"/>
    <rect id="Rectangle_2030" data-name="Rectangle 2030" width="12.688" height="2.671" transform="translate(150.247 165.692)" opacity="0.1"/>
    <rect id="Rectangle_2031" data-name="Rectangle 2031" width="9.516" height="2.003" transform="translate(151.833 166.026)" opacity="0.1"/>
    <rect id="Rectangle_2032" data-name="Rectangle 2032" width="41.735" height="23.038" transform="translate(177.959 161.686)" fill="#65617d"/>
    <rect id="Rectangle_2033" data-name="Rectangle 2033" width="12.688" height="2.671" transform="translate(192.65 165.692)" opacity="0.1"/>
    <rect id="Rectangle_2034" data-name="Rectangle 2034" width="9.516" height="2.003" transform="translate(194.236 166.026)" opacity="0.1"/>
    <rect id="Rectangle_2035" data-name="Rectangle 2035" width="41.735" height="23.038" transform="translate(135.556 137.98)" fill="#65617d"/>
    <rect id="Rectangle_2036" data-name="Rectangle 2036" width="12.688" height="2.671" transform="translate(150.247 141.987)" opacity="0.1"/>
    <rect id="Rectangle_2037" data-name="Rectangle 2037" width="9.516" height="2.003" transform="translate(151.833 142.321)" opacity="0.1"/>
    <rect id="Rectangle_2038" data-name="Rectangle 2038" width="41.735" height="23.038" transform="translate(177.959 137.98)" fill="#65617d"/>
    <rect id="Rectangle_2039" data-name="Rectangle 2039" width="12.688" height="2.671" transform="translate(192.65 141.987)" opacity="0.1"/>
    <rect id="Rectangle_2040" data-name="Rectangle 2040" width="9.516" height="2.003" transform="translate(194.236 142.321)" opacity="0.1"/>
    <rect id="Rectangle_2041" data-name="Rectangle 2041" width="41.735" height="23.038" transform="translate(135.556 113.941)" fill="#65617d"/>
    <rect id="Rectangle_2042" data-name="Rectangle 2042" width="12.688" height="2.671" transform="translate(150.247 117.947)" opacity="0.1"/>
    <rect id="Rectangle_2043" data-name="Rectangle 2043" width="9.516" height="2.003" transform="translate(151.833 118.281)" opacity="0.1"/>
    <rect id="Rectangle_2044" data-name="Rectangle 2044" width="41.735" height="23.038" transform="translate(177.959 113.941)" fill="#65617d"/>
    <rect id="Rectangle_2045" data-name="Rectangle 2045" width="12.688" height="2.671" transform="translate(192.65 117.947)" opacity="0.1"/>
    <rect id="Rectangle_2046" data-name="Rectangle 2046" width="9.516" height="2.003" transform="translate(194.236 118.281)" opacity="0.1"/>
    <rect id="Rectangle_2047" data-name="Rectangle 2047" width="41.735" height="23.038" transform="translate(177.959 89.901)" fill="#65617d"/>
    <rect id="Rectangle_2048" data-name="Rectangle 2048" width="12.688" height="2.671" transform="translate(192.65 93.908)" opacity="0.1"/>
    <rect id="Rectangle_2049" data-name="Rectangle 2049" width="9.516" height="2.003" transform="translate(194.236 94.242)" opacity="0.1"/>
  </g>
</svg>
