<svg xmlns="http://www.w3.org/2000/svg" width="90" height="90" viewBox="0 0 90 90">
  <g id="BOM" transform="translate(-20880.5 2412.5)">
    <g id="Rectangle_19071" data-name="Rectangle 19071" transform="translate(20880.5 -2412.5)" fill="#fff" stroke="#707070" stroke-width="1" opacity="0">
      <rect width="90" height="90" stroke="none"/>
      <rect x="0.5" y="0.5" width="89" height="89" fill="none"/>
    </g>
    <g id="BOM_-_real" data-name="BOM - real" transform="translate(20891.125 -2405.583)">
      <path id="Path_7793" data-name="Path 7793" d="M10.1,20.8A14.542,14.542,0,0,1,24.512,6.163H52.22A8.348,8.348,0,0,0,44.232,0H9.343A8.416,8.416,0,0,0,1,8.474V56.236A8.416,8.416,0,0,0,9.343,64.71H10.1Z" transform="translate(-1)" fill="#f47721"/>
      <path id="Path_7794" data-name="Path 7794" d="M49.232,4H14.343A8.35,8.35,0,0,0,6,12.343v43.99a8.35,8.35,0,0,0,8.343,8.343H49.232a8.35,8.35,0,0,0,8.343-8.343V12.343A8.35,8.35,0,0,0,49.232,4ZM43.164,55.575H20.411a2.275,2.275,0,1,1,0-4.551H43.164a2.275,2.275,0,1,1,0,4.551Zm0-12.135H20.411a2.275,2.275,0,1,1,0-4.551H43.164a2.275,2.275,0,1,1,0,4.551Zm0-10.618H20.411a2.275,2.275,0,1,1,0-4.551H43.164a2.275,2.275,0,1,1,0,4.551Zm0-12.135H20.411a2.275,2.275,0,1,1,0-4.551H43.164a2.275,2.275,0,1,1,0,4.551Z" transform="translate(10.169 9.135)" fill="#0e3c55"/>
    </g>
  </g>
</svg>
