<svg xmlns="http://www.w3.org/2000/svg" width="31" height="31" viewBox="0 0 31 31">
  <g id="Create_Icon" data-name="Create Icon" transform="translate(-1134 -383)">
    <circle id="Ellipse_1" data-name="Ellipse 1" cx="15.5" cy="15.5" r="15.5" transform="translate(1134 383)" fill="#eefcf2"/>
    <g id="Icon_ionic-ios-create" data-name="Icon ionic-ios-create" transform="translate(1138.75 387.625)">
      <g id="Group_1963" data-name="Group 1963" transform="translate(8.365 3.375)">
        <path id="Path_2058" data-name="Path 2058" d="M21.5,5.968l-7.353,7.353a.286.286,0,0,0-.084.2v.965a.288.288,0,0,0,.288.288h.957a.3.3,0,0,0,.207-.084L22.871,7.34a.288.288,0,0,0,0-.408l-.965-.965A.288.288,0,0,0,21.5,5.968Z" transform="translate(-14.062 -4.585)" fill="#f47720"/>
        <path id="Path_2059" data-name="Path 2059" d="M31.741,4.067l-.524-.524-.007-.007a.644.644,0,0,0-.419-.16.631.631,0,0,0-.422.164l-.411.415a.147.147,0,0,0,0,.2l.379.379.79.79a.145.145,0,0,0,.207,0l.411-.411a.621.621,0,0,0,.16-.422A.659.659,0,0,0,31.741,4.067Z" transform="translate(-21.709 -3.375)" fill="#f47720"/>
      </g>
      <path id="Path_2060" data-name="Path 2060" d="M10.185,16.61a.585.585,0,0,1-.411.171H8.267a.584.584,0,0,1-.582-.582V14.688a.585.585,0,0,1,.171-.411l.029-.029,5.373-5.373a.145.145,0,0,0-.1-.248H4.387A2.138,2.138,0,0,0,2.25,10.764v8.153a2.138,2.138,0,0,0,2.137,2.137H13.7a2.138,2.138,0,0,0,2.137-2.137V11.31a.145.145,0,0,0-.248-.1l-5.38,5.373Z" transform="translate(0 -2.533)" fill="#f47720"/>
    </g>
  </g>
</svg>
