<svg id="Layer_1" data-name="Layer 1" xmlns="http://www.w3.org/2000/svg" viewBox="0 0 197.12 186.79"><defs><style>.cls-1{fill:#f47920;}.cls-2{fill:#083e57;}.cls-3{fill:#fff;stroke:#083e57;stroke-miterlimit:10;stroke-width:6px;}</style></defs><path class="cls-1" d="M91.5,42.42c9.28,0,18.55,0,27.83,0,3.35,0,5.53-1.93,5.56-4.69,0-2.95-2-4.68-5.79-4.69q-16.38,0-32.75,0l-22.26,0c-3.76,0-5.85,1.7-5.85,4.64s2,4.67,5.77,4.66c9.16,0,18.33,0,27.49,0Z"/><path class="cls-1" d="M125,79q-11.76,0-23.52,0c-3.56,0-5.62,1.71-5.58,4.5s2.25,4.8,5.51,4.81q24,.06,48,0a4.83,4.83,0,0,0,5.07-4.84c0-2.59-1.95-4.41-5-4.44C141.3,78.92,133.13,79,125,79Z"/><path class="cls-1" d="M112.19,55.91c-6.86,0-13.72,0-20.59,0-3.76,0-5.9,1.56-6,4.5s2.15,4.84,5.73,4.85q21.25.06,42.49,0c3.44,0,5.21-1.63,5.25-4.49S137.14,56,133.76,56c-7.19-.05-14.38,0-21.57,0Z"/><path class="cls-2" d="M159,49.75V153.34H52.84v-6.27c0-2.55-1.31-4.07-3.52-4.09s-3.55,1.61-3.55,4.08v13.37H166.28v-6.71q0-31.77,0-63.55c0-14.72,0-29.44,0-44.17a5.07,5.07,0,0,0-1.32-3.2q-15.19-15.33-30.56-30.5a4,4,0,0,0-2.59-.94q-29.44,0-58.9,0H45.7v9.83q0,10.8,0,21.6c0,2.58,1.27,4.25,3.29,4.4,2.3.18,3.88-1.56,3.88-4.3q0-11.3,0-22.58c0-.56.06-1.11.1-1.95H67.77l39,0c6.46,0,12.92.08,19.39.05,1.32,0,1.9.37,2,1.77.78,15.31,12.74,28.32,29.8,29.35C158.2,49.6,158.44,49.66,159,49.75Z"/><circle class="cls-3" cx="146.26" cy="140.13" r="35.88"/><path class="cls-1" d="M145.73,117.05c8,0,15.91,3.7,15.91,12.53,0,8.15-9.34,11.28-11.34,14.22-1.5,2.19-1,5.27-5.14,5.27a4,4,0,0,1-4-4.2c0-7.46,11-9.15,11-15.29,0-3.38-2.26-5.39-6-5.39-8,0-4.89,8.27-11,8.27a3.76,3.76,0,0,1-4.08-3.82c0-6.15,7-11.59,14.67-11.59Zm-.31,36.09a5.14,5.14,0,1,1-5.14,5.13,5.15,5.15,0,0,1,5.14-5.13Zm0,0"/><path class="cls-1" d="M52.86,106.06c2.78-.68,4.83-2.47,4.83-4.52s-2-3.84-4.83-4.52Zm0,0"/><path class="cls-1" d="M50.45,67.79A26.54,26.54,0,1,0,77,94.33,26.57,26.57,0,0,0,50.45,67.79Zm12.06,33.75c0,4.66-4.15,8.56-9.65,9.45v2.63a2.41,2.41,0,1,1-4.82,0V111c-5.5-.89-9.65-4.79-9.65-9.45a2.41,2.41,0,1,1,4.82,0c0,2,2.06,3.84,4.83,4.52V96.52c-5.5-.9-9.65-4.79-9.65-9.45s4.15-8.56,9.65-9.46V75a2.41,2.41,0,1,1,4.82,0v2.6c5.5.9,9.65,4.8,9.65,9.46a2.41,2.41,0,0,1-4.82,0c0-2-2-3.84-4.83-4.52v9.54c5.5.89,9.65,4.79,9.65,9.45Zm0,0"/><path class="cls-1" d="M48,82.55c-2.77.68-4.83,2.46-4.83,4.52S45.27,90.9,48,91.58Zm0,0"/><path class="cls-2" d="M50.45,53.16A41.17,41.17,0,1,0,91.62,94.33,41.33,41.33,0,0,0,50.45,53.16Zm0,72.53A31.36,31.36,0,1,1,81.81,94.33a31.4,31.4,0,0,1-31.36,31.36Zm0,0"/></svg>