<svg xmlns="http://www.w3.org/2000/svg" width="26" height="26" viewBox="0 0 26 26">
  <g id="CTC_Report" data-name="CTC Report" transform="translate(8949 15830)">
    <g id="Rectangle_19060" data-name="Rectangle 19060" transform="translate(-8949 -15830)" fill="#fff" stroke="#707070" stroke-width="1" opacity="0">
      <rect width="26" height="26" stroke="none"/>
      <rect x="0.5" y="0.5" width="25" height="25" fill="none"/>
    </g>
    <g id="Group_32211" data-name="Group 32211" transform="translate(4.636 -31.862)">
      <g id="Group_32188" data-name="Group 32188" transform="translate(-8948.299 -15795.952)">
        <path id="Path_7767" data-name="Path 7767" d="M79.321,3.831a.348.348,0,0,0-.1-.246L75.74.1a.344.344,0,0,0-.246-.1V0H65.045A1.045,1.045,0,0,0,64,1.045V19.852A1.045,1.045,0,0,0,65.045,20.9H78.28a1.045,1.045,0,0,0,1.045-1.045V3.831Zm-3.48-2.642,2.294,2.294H76.19a.348.348,0,0,1-.348-.348Zm2.786,18.663a.348.348,0,0,1-.348.348H65.045a.348.348,0,0,1-.348-.348V1.045A.348.348,0,0,1,65.045.7h10.1V3.135A1.045,1.045,0,0,0,76.19,4.179h2.438Z" transform="translate(-64)" fill="#0c3d56"/>
      </g>
      <g id="statistics" transform="translate(-8945.115 -15789.972)">
        <path id="Path_7754" data-name="Path 7754" d="M31.875,4.666a.87.87,0,0,0,.606-.246l.863.432a.857.857,0,0,0-.011.106.875.875,0,0,0,1.75,0,.864.864,0,0,0-.088-.375l1.171-1.171a.864.864,0,0,0,.375.088.876.876,0,0,0,.875-.875.862.862,0,0,0-.044-.259L38.389,1.6A.874.874,0,1,0,38,.875a.862.862,0,0,0,.044.259L37.025,1.9A.871.871,0,0,0,35.754,3L34.583,4.17a.86.86,0,0,0-.98.158L32.739,3.9a.857.857,0,0,0,.011-.106.875.875,0,1,0-.875.875Zm0,0" transform="translate(-30.397 0)" fill="#f47822"/>
        <path id="Path_7755" data-name="Path 7755" d="M9.662,156.455H9.351v-6.163A.291.291,0,0,0,9.06,150H7.893a.291.291,0,0,0-.292.292v6.163H7.018v-4.413a.291.291,0,0,0-.292-.292H5.56a.291.291,0,0,0-.292.292v4.413H4.685v-2.08a.291.291,0,0,0-.292-.292H3.227a.292.292,0,0,0-.292.292v2.08H2.352v-3.247a.292.292,0,0,0-.292-.292H.894a.292.292,0,0,0-.292.292v3.247H.292a.292.292,0,1,0,0,.583H9.662a.292.292,0,1,0,0-.583Zm0,0" transform="translate(0 -147.084)" fill="#f47822"/>
      </g>
    </g>
  </g>
</svg>
