<?xml version="1.0" encoding="UTF-8"?>
<svg width="20px" height="22px" viewBox="0 0 20 22" version="1.1" xmlns="http://www.w3.org/2000/svg" xmlns:xlink="http://www.w3.org/1999/xlink">
    <!-- Generator: Sketch 56.3 (81716) - https://sketch.com -->
    <title>download (1)</title>
    <desc>Created with Sketch.</desc>
    <g id="Page-2" stroke="none" stroke-width="1" fill="none" fill-rule="evenodd">
        <g id="Desktop-HD-Copy-2" transform="translate(-96.000000, -404.000000)" fill="#F47720" fill-rule="nonzero">
            <g id="download-(1)" transform="translate(96.000000, 404.000000)">
                <g id="Group">
                    <path d="M19.2307554,14 C18.8059062,14 18.4615107,14.3581712 18.4615107,14.8000141 L18.4615107,19.6000047 C18.4615107,20.0418476 18.1171152,20.4000187 17.6922661,20.4000187 L2.30773391,20.4000187 C1.88288479,20.4000187 1.53848928,20.0418476 1.53848928,19.6000047 L1.53848928,14.8000141 C1.53848928,14.3581712 1.19409376,14 0.769244638,14 C0.344395516,14 0,14.3581712 0,14.8000141 L0,19.6000047 C0,20.9254865 1.03318655,22 2.30768884,22 L17.6923112,22 C18.9668135,22 20,20.9254865 20,19.6000047 L20,14.8000141 C20,14.3581712 19.6556045,14 19.2307554,14 Z" id="Path"></path>
                    <path d="M14.7705937,13.6898671 C14.4793926,13.3936044 14.0177593,13.3936044 13.7266022,13.6898671 L11.2506888,16.2967186 L11.2506888,0.791657217 C11.2506888,0.354429765 10.914271,0 10.4992633,0 C10.0842555,0 9.74783774,0.354429765 9.74783774,0.791657217 L9.74783774,16.296765 L7.27342126,13.6898671 C6.97491155,13.3861364 6.49923326,13.3948568 6.21093805,13.7093025 C5.92968732,14.0160946 5.92968732,14.502444 6.21093805,14.8092361 L9.96797764,18.7674294 C10.2610719,19.0769583 10.7368383,19.0776077 11.030637,18.7688674 C11.0310772,18.7684035 11.0315175,18.7679397 11.0320018,18.7674294 L14.7890414,14.8092361 C15.0773807,14.4947441 15.0691034,13.9935977 14.7705937,13.6898671 Z" id="Path"></path>
                </g>
            </g>
        </g>
    </g>
</svg>