<svg id="Group_1954" data-name="Group 1954" xmlns="http://www.w3.org/2000/svg" width="111" height="111" viewBox="0 0 111 111">
  <circle id="Ellipse_1" data-name="Ellipse 1" cx="55.5" cy="55.5" r="55.5" fill="#eefcf2"/>
  <g id="Group_3" data-name="Group 3" transform="translate(21.172 25.407)">
    <g id="excel" transform="translate(0 0)">
      <g id="Group" transform="translate(0 0)">
        <path id="Path" d="M37.743.3A1.4,1.4,0,0,0,36.585.032L1.06,7.974A1.333,1.333,0,0,0,0,9.277V54.286a1.338,1.338,0,0,0,1.159,1.308l35.524,5.3a1.361,1.361,0,0,0,1.558-1.107,1.286,1.286,0,0,0,.016-.2V1.334A1.308,1.308,0,0,0,37.743.3Z" transform="translate(0 0)" fill="#4caf50"/>
        <path id="Path-2" data-name="Path" d="M28.693,50.3H1.366a1.325,1.325,0,1,1,0-2.648h25.96V2.648H1.366A1.346,1.346,0,0,1,0,1.324,1.346,1.346,0,0,1,1.366,0H28.693a1.346,1.346,0,0,1,1.366,1.324V48.981A1.345,1.345,0,0,1,28.693,50.3Z" transform="translate(35.524 5.306)" fill="#4caf50"/>
      </g>
      <g id="Group-2" data-name="Group" transform="translate(10.654 17.461)">
        <path id="Path-3" data-name="Path" d="M14.533,24.208a1.314,1.314,0,0,1-1.119-.631L.223,2.091A1.358,1.358,0,0,1,.585.227,1.3,1.3,0,0,1,2.415.6q.024.036.045.074L15.651,22.156a1.357,1.357,0,0,1-.424,1.85A1.3,1.3,0,0,1,14.533,24.208Z" transform="translate(0 0.003)" fill="#fafafa"/>
        <path id="Path-4" data-name="Path" d="M1.316,24.211A1.331,1.331,0,0,1,0,22.865a1.362,1.362,0,0,1,.2-.709L13.391.67a1.306,1.306,0,0,1,1.8-.488,1.356,1.356,0,0,1,.48,1.835q-.022.038-.045.074L2.438,23.577A1.314,1.314,0,0,1,1.316,24.211Z" transform="translate(0.025 0)" fill="#fafafa"/>
      </g>
      <g id="Group-3" data-name="Group" transform="translate(35.492 3.458)">
        <path id="Path-5" data-name="Path" d="M1.345,50.51A1.337,1.337,0,0,1,0,49.181V1.329A1.337,1.337,0,0,1,1.345,0,1.337,1.337,0,0,1,2.69,1.329V49.181A1.337,1.337,0,0,1,1.345,50.51Z" transform="translate(10.758 0)" fill="#4caf50"/>
        <path id="Path-6" data-name="Path" d="M28.24,2.658H1.345A1.337,1.337,0,0,1,0,1.329,1.337,1.337,0,0,1,1.345,0H28.24a1.337,1.337,0,0,1,1.345,1.329A1.337,1.337,0,0,1,28.24,2.658Z" transform="translate(0 39.876)" fill="#4caf50"/>
        <path id="Path-7" data-name="Path" d="M28.24,2.658H1.345A1.337,1.337,0,0,1,0,1.329,1.337,1.337,0,0,1,1.345,0H28.24a1.337,1.337,0,0,1,1.345,1.329A1.337,1.337,0,0,1,28.24,2.658Z" transform="translate(0 31.901)" fill="#4caf50"/>
        <path id="Path-8" data-name="Path" d="M28.24,2.658H1.345A1.337,1.337,0,0,1,0,1.329,1.337,1.337,0,0,1,1.345,0H28.24a1.337,1.337,0,0,1,1.345,1.329A1.337,1.337,0,0,1,28.24,2.658Z" transform="translate(0 23.926)" fill="#4caf50"/>
        <path id="Path-9" data-name="Path" d="M28.24,2.658H1.345A1.337,1.337,0,0,1,0,1.329,1.337,1.337,0,0,1,1.345,0H28.24a1.337,1.337,0,0,1,1.345,1.329A1.337,1.337,0,0,1,28.24,2.658Z" transform="translate(0 15.95)" fill="#4caf50"/>
        <path id="Path-10" data-name="Path" d="M28.24,2.658H1.345A1.337,1.337,0,0,1,0,1.329,1.337,1.337,0,0,1,1.345,0H28.24a1.337,1.337,0,0,1,1.345,1.329A1.337,1.337,0,0,1,28.24,2.658Z" transform="translate(0 7.975)" fill="#4caf50"/>
      </g>
    </g>
    <g id="Rectangle" transform="translate(38.445 6.707)" fill="#fff" stroke="#4caf50" stroke-miterlimit="10" stroke-width="1">
      <rect width="22.615" height="47.491" stroke="none"/>
      <rect x="0.5" y="0.5" width="21.615" height="46.491" fill="none"/>
    </g>
    <g id="download-arrow" transform="translate(42.968 20.276)">
      <path id="Path-11" data-name="Path" d="M13.89,12.36a1.2,1.2,0,0,1,1.613,0,1,1,0,0,1,0,1.48l-6.759,6.2a1.245,1.245,0,0,1-1.646,0L.338,13.84a.978.978,0,0,1,0-1.48,1.2,1.2,0,0,1,1.613,0L6.776,16.8V1.036A1.092,1.092,0,0,1,7.92,0,1.079,1.079,0,0,1,9.05,1.036V16.8Z" transform="translate(0)" fill="#4caf50"/>
    </g>
  </g>
</svg>
