<svg xmlns="http://www.w3.org/2000/svg" width="309" height="307" viewBox="0 0 309 307">
  <g id="Group_32213" data-name="Group 32213" transform="translate(-698.351 -278.432)">
    <g id="No_document_Illustration" data-name="No document Illustration" transform="translate(698 278)">
      <ellipse id="Ellipse_27" data-name="Ellipse 27" cx="154.5" cy="153.5" rx="154.5" ry="153.5" transform="translate(0.35 0.432)" fill="#dcf7ff"/>
    </g>
    <g id="Group_168" data-name="Group 168" transform="translate(754.059 316.6)">
      <path id="Path_2030" data-name="Path 2030" d="M441.925,112.5H315.444A4.449,4.449,0,0,0,311,116.944v170.92a4.449,4.449,0,0,0,4.444,4.444H441.925a4.449,4.449,0,0,0,4.444-4.444V116.944a4.449,4.449,0,0,0-4.444-4.444Z" transform="translate(-311 -112.5)" fill="#f2f2f2"/>
      <path id="Path_2031" data-name="Path 2031" d="M329.552,128.5a3.106,3.106,0,0,0-3.053,3.149V294.22a3.105,3.105,0,0,0,3.053,3.149H448.219a3.105,3.105,0,0,0,3.053-3.149V131.649a3.106,3.106,0,0,0-3.053-3.149Z" transform="translate(-321.201 -123.03)" fill="#fff"/>
      <path id="Path_2032" data-name="Path 2032" d="M349.551,150.5a2.2,2.2,0,0,0-2.051,2.315V175.19a2.2,2.2,0,0,0,2.051,2.315H455.863a2.2,2.2,0,0,0,2.051-2.315V152.814a2.2,2.2,0,0,0-2.051-2.315Z" transform="translate(-335.024 -137.51)" fill="#e6e6e6"/>
      <path id="Path_2033" data-name="Path 2033" d="M349.551,261.25a2.083,2.083,0,0,0-2.051,2.11v47.825a2.083,2.083,0,0,0,2.051,2.11H455.863a2.083,2.083,0,0,0,2.051-2.11V263.36a2.083,2.083,0,0,0-2.051-2.11Z" transform="translate(-335.022 -210.401)" fill="#e6e6e6"/>
      <rect id="Rectangle_87" data-name="Rectangle 87" width="84.093" height="4.786" transform="translate(25.639 16.152)" fill="#fff"/>
      <rect id="Rectangle_88" data-name="Rectangle 88" width="84.093" height="2.222" transform="translate(25.809 26.236)" fill="#fff"/>
      <rect id="Rectangle_89" data-name="Rectangle 89" width="84.093" height="2.222" transform="translate(25.809 30.168)" fill="#fff"/>
      <rect id="Rectangle_90" data-name="Rectangle 90" width="84.093" height="2.222" transform="translate(25.809 34.098)" fill="#fff"/>
      <path id="Path_2034" data-name="Path 2034" d="M424.435,335.982h38.7a1.246,1.246,0,0,0,.881-2.127l-24.769-24.769a1.247,1.247,0,0,0-1.762,0l-6.159,6.159a2.613,2.613,0,0,1-3.7,0l-19.292-19.292a1.247,1.247,0,0,0-1.762,0l-37.73,37.73a1.246,1.246,0,0,0,.881,2.127h54.757Z" transform="translate(-348.832 -233.002)" fill="#fff"/>
      <circle id="Ellipse_20" data-name="Ellipse 20" cx="4.786" cy="4.786" r="4.786" transform="translate(24.784 57.344)" fill="#fff"/>
      <path id="Path_2035" data-name="Path 2035" d="M349.551,446.25a2.083,2.083,0,0,0-2.051,2.11v47.825a2.083,2.083,0,0,0,2.051,2.11H455.863a2.083,2.083,0,0,0,2.051-2.11V448.36a2.083,2.083,0,0,0-2.051-2.11Z" transform="translate(-335.022 -332.16)" fill="#e6e6e6"/>
      <path id="Path_2036" data-name="Path 2036" d="M424.435,520.982h38.7a1.246,1.246,0,0,0,.881-2.127l-24.769-24.768a1.248,1.248,0,0,0-1.762,0l-6.159,6.159a2.612,2.612,0,0,1-3.7,0l-19.292-19.292a1.248,1.248,0,0,0-1.762,0l-37.73,37.73a1.246,1.246,0,0,0,.881,2.127h54.757Z" transform="translate(-348.832 -354.762)" fill="#fff"/>
      <circle id="Ellipse_21" data-name="Ellipse 21" cx="4.786" cy="4.786" r="4.786" transform="translate(24.784 120.584)" fill="#fff"/>
      <path id="Path_2037" data-name="Path 2037" d="M448.077,227.5A3.08,3.08,0,0,0,445,230.577V401.5a3.08,3.08,0,0,0,3.077,3.077H574.558a3.08,3.08,0,0,0,3.077-3.077V230.577a3.08,3.08,0,0,0-3.077-3.077Z" transform="translate(-399.194 -188.188)" fill="#e6e6e6"/>
      <path id="Path_2038" data-name="Path 2038" d="M459.052,241.5A3.105,3.105,0,0,0,456,244.649V407.22a3.106,3.106,0,0,0,3.053,3.149H577.719a3.106,3.106,0,0,0,3.053-3.149V244.649a3.105,3.105,0,0,0-3.053-3.149Z" transform="translate(-406.432 -197.403)" fill="#fff"/>
      <path id="Path_2039" data-name="Path 2039" d="M516.617,310.683a1.369,1.369,0,0,0-1.367,1.367v6.276a1.369,1.369,0,0,0,1.367,1.367h80.674a1.369,1.369,0,0,0,1.367-1.367V312.05a1.369,1.369,0,0,0-1.367-1.367Z" transform="translate(-445.43 -242.936)" fill="#f47720"/>
      <path id="Path_2040" data-name="Path 2040" d="M517.092,371.439a.342.342,0,0,0-.342.342v2.45a.342.342,0,0,0,.342.342h82.042a.342.342,0,0,0,.342-.342v-2.45a.342.342,0,0,0-.342-.342Z" transform="translate(-446.416 -282.923)" fill="#ccc"/>
      <path id="Path_2041" data-name="Path 2041" d="M517.092,394.734a.342.342,0,0,0-.342.342v2.45a.342.342,0,0,0,.342.342h82.042a.342.342,0,0,0,.342-.342v-2.45a.342.342,0,0,0-.342-.342Z" transform="translate(-446.416 -298.255)" fill="#ccc"/>
      <path id="Path_2042" data-name="Path 2042" d="M517.092,418.029a.342.342,0,0,0-.342.342v2.45a.342.342,0,0,0,.342.342h82.042a.342.342,0,0,0,.342-.342v-2.45a.342.342,0,0,0-.342-.342Z" transform="translate(-446.416 -313.587)" fill="#ccc"/>
      <path id="Path_2043" data-name="Path 2043" d="M516.592,464.561a.342.342,0,0,0-.342.342v2.45a.342.342,0,0,0,.342.342h82.042a.342.342,0,0,0,.342-.342V464.9a.342.342,0,0,0-.342-.342Z" transform="translate(-446.087 -344.212)" fill="#ccc"/>
      <path id="Path_2044" data-name="Path 2044" d="M516.592,487.856a.342.342,0,0,0-.342.342v2.45a.342.342,0,0,0,.342.342h82.042a.342.342,0,0,0,.342-.342V488.2a.342.342,0,0,0-.342-.342Z" transform="translate(-446.087 -359.544)" fill="#ccc"/>
      <path id="Path_2045" data-name="Path 2045" d="M516.592,511.15a.342.342,0,0,0-.342.342v2.45a.342.342,0,0,0,.342.342h82.042a.342.342,0,0,0,.342-.342v-2.45a.342.342,0,0,0-.342-.342Z" transform="translate(-446.087 -374.875)" fill="#ccc"/>
      <path id="Path_2046" data-name="Path 2046" d="M516.592,534.561a.342.342,0,0,0-.342.342v2.45a.342.342,0,0,0,.342.342h82.042a.342.342,0,0,0,.342-.342V534.9a.342.342,0,0,0-.342-.342Z" transform="translate(-446.087 -390.283)" fill="#ccc"/>
      <path id="Path_2047" data-name="Path 2047" d="M516.592,557.855a.342.342,0,0,0-.342.342v2.45a.342.342,0,0,0,.342.342h82.042a.342.342,0,0,0,.342-.342V558.2a.342.342,0,0,0-.342-.342Z" transform="translate(-446.087 -405.615)" fill="#ccc"/>
      <path id="Path_2048" data-name="Path 2048" d="M516.592,581.15a.342.342,0,0,0-.342.342v2.45a.342.342,0,0,0,.342.342h82.042a.342.342,0,0,0,.342-.342v-2.45a.342.342,0,0,0-.342-.342Z" transform="translate(-446.087 -420.946)" fill="#ccc"/>
      <path id="Path_2049" data-name="Path 2049" d="M516.592,604.561a.342.342,0,0,0-.342.342v2.45a.342.342,0,0,0,.342.342h82.042a.342.342,0,0,0,.342-.342V604.9a.342.342,0,0,0-.342-.342Z" transform="translate(-446.087 -436.354)" fill="#ccc"/>
      <path id="Path_2050" data-name="Path 2050" d="M516.592,627.855a.342.342,0,0,0-.342.342v2.45a.342.342,0,0,0,.342.342h82.042a.342.342,0,0,0,.342-.342V628.2a.342.342,0,0,0-.342-.342Z" transform="translate(-446.087 -451.686)" fill="#ccc"/>
      <path id="Path_2051" data-name="Path 2051" d="M516.592,651.15a.342.342,0,0,0-.342.342v2.45a.342.342,0,0,0,.342.342h82.042a.342.342,0,0,0,.342-.342v-2.45a.342.342,0,0,0-.342-.342Z" transform="translate(-446.087 -467.018)" fill="#ccc"/>
      <ellipse id="Ellipse_22" data-name="Ellipse 22" cx="25.272" cy="24.813" rx="25.272" ry="24.813" transform="translate(147.958 181.079)" fill="#f47720"/>
      <path id="Icon_open-magnifying-glass" data-name="Icon open-magnifying-glass" d="M13.975-.005a13.975,13.975,0,0,0,0,27.949A13.812,13.812,0,0,0,20.6,26.307a3.992,3.992,0,0,0,.519.519l3.993,3.993a4.073,4.073,0,1,0,5.75-5.75l-3.993-3.993a3.992,3.992,0,0,0-.639-.519,13.787,13.787,0,0,0,1.757-6.628A13.99,13.99,0,0,0,14.015-.045Zm0,3.993a9.935,9.935,0,0,1,9.982,9.982,10.012,10.012,0,0,1-2.635,6.868l-.12.12a3.992,3.992,0,0,0-.519.519,9.991,9.991,0,0,1-6.748,2.515,9.982,9.982,0,1,1,0-19.964Z" transform="translate(157.148 189.395)" fill="#fff"/>
    </g>
  </g>
</svg>
