<svg xmlns="http://www.w3.org/2000/svg" width="26" height="26" viewBox="0 0 26 26"><defs><style>.a{fill:#eefcf2;}.b{fill:#4caf50;}.c{fill:#fafafa;}.d{fill:#fff;stroke:#4caf50;stroke-miterlimit:10;}.e{stroke:none;}.f{fill:none;}</style></defs><g transform="translate(-5634 -250)"><circle class="a" cx="13" cy="13" r="13" transform="translate(5634 250)"/><g transform="translate(4618.5 -95.034)"><g transform="translate(1020.5 351.034)"><g transform="translate(0 0)"><path class="b" d="M8.913.07A.331.331,0,0,0,8.64.007L.25,1.883A.315.315,0,0,0,0,2.191V12.82a.316.316,0,0,0,.274.309L8.663,14.38a.321.321,0,0,0,.368-.261.3.3,0,0,0,0-.047V.315A.309.309,0,0,0,8.913.07Z" transform="translate(0 0)"/><path class="b" d="M6.776,11.88H.323a.313.313,0,1,1,0-.625H6.453V.625H.323A.318.318,0,0,1,0,.313.318.318,0,0,1,.323,0H6.776A.318.318,0,0,1,7.1.313V11.567A.318.318,0,0,1,6.776,11.88Z" transform="translate(8.389 1.253)"/></g><g transform="translate(2.516 4.124)"><path class="c" d="M3.432,5.717a.31.31,0,0,1-.264-.149L.053.494A.321.321,0,0,1,.138.054.308.308,0,0,1,.57.141L.581.158,3.7,5.232a.321.321,0,0,1-.1.437A.308.308,0,0,1,3.432,5.717Z" transform="translate(0 0.001)"/><path class="c" d="M.311,5.718A.314.314,0,0,1,0,5.4a.322.322,0,0,1,.047-.167L3.162.158A.308.308,0,0,1,3.588.043.32.32,0,0,1,3.7.476L3.691.494.576,5.568A.31.31,0,0,1,.311,5.718Z" transform="translate(0.006)"/></g><g transform="translate(8.382 0.817)"><path class="b" d="M.318,11.928A.316.316,0,0,1,0,11.614V.314A.316.316,0,0,1,.318,0,.316.316,0,0,1,.635.314v11.3A.316.316,0,0,1,.318,11.928Z" transform="translate(2.541 0)"/><path class="b" d="M6.669.628H.318A.316.316,0,0,1,0,.314.316.316,0,0,1,.318,0H6.669a.316.316,0,0,1,.318.314A.316.316,0,0,1,6.669.628Z" transform="translate(0 9.417)"/><path class="b" d="M6.669.628H.318A.316.316,0,0,1,0,.314.316.316,0,0,1,.318,0H6.669a.316.316,0,0,1,.318.314A.316.316,0,0,1,6.669.628Z" transform="translate(0 7.534)"/><path class="b" d="M6.669.628H.318A.316.316,0,0,1,0,.314.316.316,0,0,1,.318,0H6.669a.316.316,0,0,1,.318.314A.316.316,0,0,1,6.669.628Z" transform="translate(0 5.65)"/><path class="b" d="M6.669.628H.318A.316.316,0,0,1,0,.314.316.316,0,0,1,.318,0H6.669a.316.316,0,0,1,.318.314A.316.316,0,0,1,6.669.628Z" transform="translate(0 3.767)"/><path class="b" d="M6.669.628H.318A.316.316,0,0,1,0,.314.316.316,0,0,1,.318,0H6.669a.316.316,0,0,1,.318.314A.316.316,0,0,1,6.669.628Z" transform="translate(0 1.883)"/></g></g><g class="d" transform="translate(1029.579 352.618)"><rect class="e" width="5.341" height="11.216"/><rect class="f" x="0.5" y="0.5" width="4.341" height="10.216"/></g><g transform="translate(1030.647 355.823)"><path class="b" d="M3.28,2.919a.284.284,0,0,1,.381,0,.236.236,0,0,1,0,.35l-1.6,1.465a.294.294,0,0,1-.389,0L.08,3.269a.231.231,0,0,1,0-.35.284.284,0,0,1,.381,0L1.6,3.968V.245A.258.258,0,0,1,1.87,0a.255.255,0,0,1,.267.245V3.968Z" transform="translate(0)"/></g></g></g></svg>