<svg id="Layer_1" data-name="Layer 1" xmlns="http://www.w3.org/2000/svg" viewBox="0 0 197.12 186.79"><defs><style>.cls-1{fill:#083e57;}.cls-2{fill:#f47920;}.cls-3{fill:#fff;}</style></defs><path class="cls-1" d="M55.31,22.31c1.1-3.68,2.07-4.72,5.69-4.31,4.15.47,6.68-.88,8.13-4.76a15.35,15.35,0,0,1,2.51-4.3,4.33,4.33,0,0,1,2.77-1.59c8.27-.12,16.54-.06,24.82-.08a3.29,3.29,0,0,1,3,1.88c1.44,2.55,3,5.06,4.37,7.61a1.94,1.94,0,0,0,2,1.19c1.49-.08,3,0,4.48,0,4,0,4.81.62,6,4.42h9c3,0,6-.05,9,0A14,14,0,0,1,150.94,36c.2,12.74.1,25.5.1,38.25q0,44.1,0,88.22a27,27,0,0,1-.31,5.48,14.33,14.33,0,0,1-14.49,11.56q-25.17,0-50.32,0-23.86,0-47.73,0A14.39,14.39,0,0,1,23.65,168a19.07,19.07,0,0,1-.29-3.93q0-63.33,0-126.65c0-9,6.13-15.07,15.18-15.08ZM33.2,100.89h0q0,31.19,0,62.37c0,5.09,1.26,6.33,6.29,6.33h96.66c3,0,4.67-1.51,5-4.51a20.36,20.36,0,0,0,.05-2.07V67.56q0-14.91,0-29.81c0-3.74-1.44-5.43-4.86-5.49-5.46-.09-10.92,0-16.37,0a1.77,1.77,0,0,0-1.35.9,4.12,4.12,0,0,1-4.41,3c-7.18,0-14.36,0-21.54,0-10.8,0-21.6,0-32.39,0-2.06,0-3.72-.63-4.34-2.63-.4-1.26-1.06-1.39-2.13-1.38-5,0-10,0-15,0-4.12,0-5.62,1.48-5.62,5.6Q33.2,69.36,33.2,100.89Z"/><path class="cls-2" d="M87.35,147.86H43.25c-2.92,0-4.73-1.7-4.68-4.32a4,4,0,0,1,3.35-4,10.88,10.88,0,0,1,2.06-.18q43.23,0,86.46,0a8.32,8.32,0,0,1,3,.49,4.09,4.09,0,0,1,2.28,4.72,4.19,4.19,0,0,1-4.3,3.26c-6.83,0-13.66,0-20.5,0H87.35Z"/><path class="cls-2" d="M87.2,128.94q-14.2,0-28.41,0c-2.71,0-4.41-1.36-4.67-3.59-.33-2.74,1.38-4.74,4.3-4.82,3.79-.1,7.58,0,11.37,0h44.42c.63,0,1.27,0,1.9,0a4.15,4.15,0,0,1,4.2,4.29,4.1,4.1,0,0,1-4.35,4.13c-4.42,0-8.84,0-13.26,0H87.2Z"/><path class="cls-2" d="M158,86.86l11.56,11.56-29.27,29.27-11.55-11.57Zm20.33-2.79-5.16-5.15a5.09,5.09,0,0,0-7.22,0L161,83.85l11.56,11.57,5.76-5.77a3.93,3.93,0,0,0,0-5.58Zm-55.64,48.3a1.32,1.32,0,0,0,1.59,1.57l12.88-3.12L125.6,119.25Zm0,0"/><path class="cls-3" d="M124,134.28a1.61,1.61,0,0,1-1.13-.46,1.63,1.63,0,0,1-.45-1.51l3-13.66L137.75,131l-13.41,3.25A1.65,1.65,0,0,1,124,134.28Zm-1-1.84a1,1,0,0,0,1.23,1.21l12.36-3-10.79-10.79Zm17.31-4.33-12-12L158,86.43l12,12Zm-11.12-12,11.12,11.14,28.84-28.84L158,87.29Zm43.4-20.28-12-12,5.15-5.15a5.44,5.44,0,0,1,7.66,0l5.15,5.16a4.25,4.25,0,0,1,0,6Zm-11.13-12L172.56,95l5.55-5.55a3.66,3.66,0,0,0,0-5.16L173,79.13a4.82,4.82,0,0,0-6.8,0Z"/><circle class="cls-3" cx="89.72" cy="79.03" r="26.88"/><path class="cls-1" d="M89.72,107.72A28.7,28.7,0,1,1,118.42,79,28.72,28.72,0,0,1,89.72,107.72Zm0-53.76A25.07,25.07,0,1,0,114.79,79,25.09,25.09,0,0,0,89.72,54Z"/><ellipse class="cls-3" cx="90.94" cy="78.03" rx="14.41" ry="18.39"/><path class="cls-2" d="M90.94,97c-8.28,0-15-8.52-15-19s6.73-19,15-19,15,8.52,15,19S99.21,97,90.94,97Zm0-36.78c-7.61,0-13.8,8-13.8,17.78s6.19,17.79,13.8,17.79,13.8-8,13.8-17.79S98.55,60.25,90.94,60.25Z"/><path class="cls-2" d="M91.66,88.43c2.22-.55,3.86-2,3.86-3.62s-1.64-3.08-3.86-3.62Zm0,0"/><path class="cls-2" d="M89.72,57.77A21.26,21.26,0,1,0,111,79,21.28,21.28,0,0,0,89.72,57.77Zm9.67,27c0,3.73-3.33,6.85-7.73,7.57v2.11a1.94,1.94,0,0,1-3.87,0V92.38c-4.4-.72-7.73-3.84-7.73-7.57a1.94,1.94,0,1,1,3.87,0c0,1.64,1.64,3.07,3.86,3.62V80.78c-4.4-.71-7.73-3.84-7.73-7.57s3.33-6.86,7.73-7.57V63.55a1.94,1.94,0,1,1,3.87,0v2.09c4.4.71,7.73,3.84,7.73,7.57a1.94,1.94,0,0,1-3.87,0c0-1.64-1.64-3.07-3.86-3.62v7.64c4.4.72,7.73,3.84,7.73,7.58Zm0,0"/><path class="cls-2" d="M87.79,69.59c-2.22.55-3.86,2-3.86,3.62s1.64,3.07,3.86,3.62Zm0,0"/></svg>