<svg xmlns="http://www.w3.org/2000/svg" width="90" height="90" viewBox="0 0 90 90">
  <g id="PO" transform="translate(-20906.146 2412.853)">
    <g id="Rectangle_19072" data-name="Rectangle 19072" transform="translate(20906.146 -2412.853)" fill="#fff" stroke="#707070" stroke-width="1" opacity="0">
      <rect width="90" height="90" stroke="none"/>
      <rect x="0.5" y="0.5" width="89" height="89" fill="none"/>
    </g>
    <g id="BOM" transform="translate(20916.758 -2405.841)">
      <path id="Path_7795" data-name="Path 7795" d="M63.509,66.9c0-2.226-.009,1.737-.009-57.835A9.159,9.159,0,0,0,54.275,0H18.226A9.159,9.159,0,0,0,9,9.07V58.447a15.047,15.047,0,0,0,15.157,14.9H65.7A10.565,10.565,0,0,1,63.509,66.9ZM31,42.26H19.929a2.149,2.149,0,1,1,0-4.3H31a2.149,2.149,0,1,1,0,4.3Zm0-9.168H19.929a2.149,2.149,0,1,1,0-4.3H31a2.149,2.149,0,1,1,0,4.3ZM47.832,58.984V60.47a2.186,2.186,0,0,1-4.372,0V59.183a10.621,10.621,0,0,1-5.2-1.917,2.127,2.127,0,0,1-.632-2.975,2.209,2.209,0,0,1,3.025-.622,6.586,6.586,0,0,0,2.808,1.195V46a15.928,15.928,0,0,1-3.229-1.859C36.3,41.1,37.537,33.689,43.461,32.159V30.867a2.186,2.186,0,0,1,4.372,0v1.142a8.91,8.91,0,0,1,4.1,1.928A2.145,2.145,0,0,1,50.4,37.61c-1.16,0-1.25-.642-2.566-1.145v6.648c.375.136.748.268,1.115.4,8.031,2.791,6.53,13.566-1.115,15.474Zm4.739-35.06H19.929a2.149,2.149,0,1,1,0-4.3H52.571a2.149,2.149,0,1,1,0,4.3Zm0-8.022H19.929a2.149,2.149,0,1,1,0-4.3H52.571a2.149,2.149,0,1,1,0,4.3Z" transform="translate(-9 0)" fill="#0e3c55"/>
      <path id="Path_7796" data-name="Path 7796" d="M238.278,260.853c.152.119.318.235.495.351V257.15C237.541,258.148,237.413,260.174,238.278,260.853Z" transform="translate(-204.861 -220.187)" fill="#bfbfbf"/>
      <path id="Path_7797" data-name="Path 7797" d="M275.48,332.94v6.32C277.736,337.924,278.445,334.227,275.48,332.94Z" transform="translate(-237.164 -284.983)" fill="#bfbfbf"/>
      <path id="Path_7798" data-name="Path 7798" d="M420.738,241H413c0,35.627.008,28.759.008,30.614a6.091,6.091,0,0,0,12.182,0V245.452A4.458,4.458,0,0,0,420.738,241Z" transform="translate(-354.281 -204.358)" fill="#f47721"/>
    </g>
  </g>
</svg>
