<svg xmlns="http://www.w3.org/2000/svg" width="90" height="90" viewBox="0 0 90 90">
  <g id="PR" transform="translate(-20990.5 2381.5)">
    <g id="Rectangle_19079" data-name="Rectangle 19079" transform="translate(20990.5 -2381.5)" fill="#fff" stroke="#707070" stroke-width="1" opacity="0">
      <rect width="90" height="90" stroke="none"/>
      <rect x="0.5" y="0.5" width="89" height="89" fill="none"/>
    </g>
    <g id="PR-2" data-name="PR" transform="translate(21001.559 -2370.44)">
      <path id="Path_7831" data-name="Path 7831" d="M211.374,34.219a3.013,3.013,0,0,0-1.037,4.934l7.884,7.889a5.4,5.4,0,0,0,7.637,0l7.884-7.889a3.011,3.011,0,0,0-2.129-5.137h-3.328c0-1.038,0-11.723,0-12.762A4.259,4.259,0,0,0,224.032,17h-3.984a4.257,4.257,0,0,0-4.253,4.253c0,9.077,0-5.835,0,12.763C212.281,34.016,212.074,33.948,211.374,34.219Z" transform="translate(-182.262 -14.74)" fill="#f47721"/>
      <path id="Path_7832" data-name="Path 7832" d="M65.1,52.611c-54.447,0-52.02.01-52.023-.018-.6-4.779-.573-4.473-.534-4.479,26.127-.136-36.347.009,48.211.009a6.058,6.058,0,0,0,6.18-6.209V15.292A4.7,4.7,0,0,0,62.253,10.6l-12.336-.021v4.51a6.9,6.9,0,0,1,4.227,11.739L46.376,34.6a9.243,9.243,0,0,1-13.084,0l-7.769-7.773A6.9,6.9,0,0,1,29.75,15.093V10.548l-13.518-.023-1.308-7.2A4.042,4.042,0,0,0,10.945,0H1.965a1.965,1.965,0,0,0,0,3.929h8.98c.431,0,4.545,27.035,6.607,40.229l-5.028.026a3.951,3.951,0,0,0-3.9,4.44l.557,4.455a3.956,3.956,0,0,0,3.92,3.46h3.487a7.224,7.224,0,1,0,12.854,0H48.149a7.224,7.224,0,1,0,12.854,0h4.1a1.965,1.965,0,1,0,0-3.929Z" transform="translate(0 0)" fill="#0e3c55"/>
    </g>
  </g>
</svg>
