<svg xmlns="http://www.w3.org/2000/svg" width="24" height="24" viewBox="0 0 24 24">
  <g id="Project_store" data-name="Project store" transform="translate(-20853 2413)">
    <g id="Rectangle_19070" data-name="Rectangle 19070" transform="translate(20853 -2413)" fill="#fff" stroke="#707070" stroke-width="1" opacity="0">
      <rect width="24" height="24" stroke="none"/>
      <rect x="0.5" y="0.5" width="23" height="23" fill="none"/>
    </g>
    <g id="Project_Store-2" data-name="Project Store" transform="translate(20855 -2411.178)">
      <path id="Path_7799" data-name="Path 7799" d="M10.842,1.586,1.7.2A1.475,1.475,0,0,0,.516.521,1.488,1.488,0,0,0,0,1.636V19.168A.835.835,0,0,0,.832,20h2.7V15.631a1.452,1.452,0,0,1,1.456-1.456h2.08a1.452,1.452,0,0,1,1.456,1.456V20h3.536V3.025a1.457,1.457,0,0,0-1.223-1.44ZM4.576,12.3H3.328a.624.624,0,1,1,0-1.248H4.576a.624.624,0,1,1,0,1.248Zm0-2.5H3.328a.624.624,0,1,1,0-1.248H4.576a.624.624,0,1,1,0,1.248Zm0-2.5H3.328a.624.624,0,0,1,0-1.248H4.576a.624.624,0,0,1,0,1.248Zm0-2.5H3.328a.624.624,0,0,1,0-1.248H4.576a.624.624,0,1,1,0,1.248ZM8.737,12.3H7.489a.624.624,0,1,1,0-1.248H8.737a.624.624,0,1,1,0,1.248Zm0-2.5H7.489a.624.624,0,0,1,0-1.248H8.737a.624.624,0,1,1,0,1.248Zm0-2.5H7.489a.624.624,0,0,1,0-1.248H8.737a.624.624,0,1,1,0,1.248Zm0-2.5H7.489a.624.624,0,0,1,0-1.248H8.737a.624.624,0,1,1,0,1.248Z" transform="translate(0 0)" fill="#0e3c55"/>
      <path id="Path_7800" data-name="Path 7800" d="M21.424,10.592,15.5,9.351V21.54h5.617a1.458,1.458,0,0,0,1.456-1.456v-8.07A1.449,1.449,0,0,0,21.424,10.592Zm-1.972,8.452H18.2a.624.624,0,1,1,0-1.248h1.248a.624.624,0,1,1,0,1.248Zm0-2.5H18.2a.624.624,0,1,1,0-1.248h1.248a.624.624,0,1,1,0,1.248Zm0-2.5H18.2a.624.624,0,1,1,0-1.248h1.248a.624.624,0,1,1,0,1.248Z" transform="translate(-2.603 -1.54)" fill="#f47822"/>
    </g>
  </g>
</svg>
