<svg xmlns="http://www.w3.org/2000/svg" width="64" height="64" viewBox="0 0 64 64">
  <g id="Group_32318" data-name="Group 32318" transform="translate(-21046 2382)">
    <g id="Rectangle_19081" data-name="Rectangle 19081" transform="translate(21046 -2382)" fill="#fff" stroke="#707070" stroke-width="1" opacity="0">
      <rect width="64" height="64" stroke="none"/>
      <rect x="0.5" y="0.5" width="63" height="63" fill="none"/>
    </g>
    <g id="GRN" transform="translate(21054 -2374)">
      <path id="Path_7825" data-name="Path 7825" d="M20.41,11.935H7.481A3.485,3.485,0,0,1,4,8.454V5.47A1.492,1.492,0,0,1,5.492,3.978H8.682a5.471,5.471,0,0,1,10.527,0H22.4A1.492,1.492,0,0,1,23.891,5.47V8.454A3.485,3.485,0,0,1,20.41,11.935Z" transform="translate(3.957)" fill="#f47822"/>
      <path id="Path_7826" data-name="Path 7826" d="M23.978,35.837a1,1,0,0,1-.889-.549L20.525,30.16A4.994,4.994,0,0,1,20,27.936V9.978a3.978,3.978,0,1,1,7.957,0V27.936a4.994,4.994,0,0,1-.525,2.224l-2.564,5.128a1,1,0,0,1-.889.549Zm2.564-6.123h0Z" transform="translate(19.783 5.935)" fill="#f47822"/>
      <path id="Path_7827" data-name="Path 7827" d="M30.335,3h-.5V5.486a5.475,5.475,0,0,1-5.47,5.47H11.438a5.475,5.475,0,0,1-5.47-5.47V3h-.5A5.475,5.475,0,0,0,0,8.47V39.3a5.475,5.475,0,0,0,5.47,5.47H30.335A5.475,5.475,0,0,0,35.8,39.3V8.47A5.475,5.475,0,0,0,30.335,3ZM28.345,38.8H7.459a1.492,1.492,0,0,1,0-2.984H28.345a1.492,1.492,0,1,1,0,2.984Zm0-5.967H7.459a1.492,1.492,0,1,1,0-2.984H28.345a1.492,1.492,0,1,1,0,2.984Zm0-5.967H7.459a1.492,1.492,0,0,1,0-2.984H28.345a1.492,1.492,0,1,1,0,2.984Zm0-5.967H7.459a1.492,1.492,0,1,1,0-2.984H28.345a1.492,1.492,0,1,1,0,2.984Z" transform="translate(0 2.967)" fill="#0e3c55"/>
    </g>
  </g>
</svg>
