<svg xmlns="http://www.w3.org/2000/svg" width="24" height="24" viewBox="0 0 24 24">
  <g id="Report" transform="translate(-20935 2413)">
    <g id="Rectangle_19073" data-name="Rectangle 19073" transform="translate(20935 -2413)" fill="#fff" stroke="#707070" stroke-width="1" opacity="0">
      <rect width="24" height="24" stroke="none"/>
      <rect x="0.5" y="0.5" width="23" height="23" fill="none"/>
    </g>
    <g id="Report_1" data-name="Report 1" transform="translate(20937.816 -2409.999)">
      <path id="Path_7808" data-name="Path 7808" d="M142.323,409.772a.465.465,0,0,0,.352-.078.471.471,0,0,0,.194-.307.479.479,0,0,0-.079-.358h0a.473.473,0,1,0-.467.742Z" transform="translate(-136.781 -394.513)" fill="#f47822"/>
      <path id="Path_7809" data-name="Path 7809" d="M204.691,272.3a.479.479,0,0,0,.114-.664h0a.473.473,0,1,0-.773.545A.472.472,0,0,0,204.691,272.3Z" transform="translate(-196.625 -261.93)" fill="#f47822"/>
      <path id="Path_7810" data-name="Path 7810" d="M230.84,138.888a.485.485,0,0,0,.546-.385.479.479,0,0,0-.079-.358h0a.473.473,0,1,0-.467.742Z" transform="translate(-222.198 -133.111)" fill="#f47822"/>
      <path id="Path_7811" data-name="Path 7811" d="M457.933,53.633h1.528a.35.35,0,0,0,.255-.1.341.341,0,0,0,.1-.244V37.314A.34.34,0,0,0,459.45,37h-1.517a1.522,1.522,0,0,1,.04.345V53.289a1.523,1.523,0,0,1-.04.344Z" transform="translate(-441.715 -35.701)" fill="#f47822"/>
      <path id="Path_7812" data-name="Path 7812" d="M103.481,1.552h4.036a.224.224,0,0,0,.224-.224c0-.289,0-.811,0-1.1A.224.224,0,0,0,107.517,0h-4.036a.224.224,0,0,0-.224.224c0,.273,0,.825,0,1.1a.224.224,0,0,0,.224.224Z" transform="translate(-99.463 0)" fill="#f47822"/>
      <path id="Path_7813" data-name="Path 7813" d="M68.736,298.63a.477.477,0,1,0-.659-.119A.472.472,0,0,0,68.736,298.63Z" transform="translate(-65.432 -287.332)" fill="#f47822"/>
      <path id="Path_7814" data-name="Path 7814" d="M367.642,53.631l1.648,0a.359.359,0,0,0,.37-.345V37.341a.359.359,0,0,0-.371-.345h-1.645a1.425,1.425,0,0,1,.017.221V53.4A1.411,1.411,0,0,1,367.642,53.631Z" transform="translate(-354.587 -35.701)" fill="#f47822"/>
      <path id="Path_7815" data-name="Path 7815" d="M11.669,53.647a.22.22,0,0,0,.219-.221V37.23a.22.22,0,0,0-.219-.221H9.463v.506a.942.942,0,0,1-.938.945H3.547a.942.942,0,0,1-.938-.945v-.506H.4a.22.22,0,0,0-.219.221v16.2a.22.22,0,0,0,.219.221H11.669ZM2.08,45.254a1.653,1.653,0,0,1,2.31.414h0l.012.018,1.763-.292a1.664,1.664,0,0,1,.678-1.064,1.637,1.637,0,0,1,.813-.295l.281-1.541a1.659,1.659,0,0,1-.572-.514,1.681,1.681,0,0,1,.406-2.328,1.651,1.651,0,0,1,2.31.414,1.68,1.68,0,0,1-.406,2.328,1.647,1.647,0,0,1-.561.255L8.8,44.372a1.664,1.664,0,0,1,.353.371h0a1.682,1.682,0,0,1-.406,2.328,1.638,1.638,0,0,1-.947.3,1.657,1.657,0,0,1-1.363-.714c-.02-.029-.039-.059-.057-.089l-1.7.282a1.69,1.69,0,0,1-.322.787l.867,1.249a1.654,1.654,0,0,1,1.761.666,1.68,1.68,0,0,1-.406,2.328,1.635,1.635,0,0,1-.945.3,1.678,1.678,0,0,1-1.381-2.611l-.906-1.3a1.656,1.656,0,0,1-1.668-.686,1.682,1.682,0,0,1,.406-2.328Z" transform="translate(0 -35.714)" fill="#0e3c55"/>
    </g>
  </g>
</svg>
