<svg xmlns="http://www.w3.org/2000/svg" width="28" height="28" viewBox="0 0 28 28">
  <g id="Group_30959" data-name="Group 30959" transform="translate(-283 -200)">
    <rect id="Rectangle_19022" data-name="Rectangle 19022" width="28" height="28" transform="translate(283 200)" fill="none"/>
    <g id="Group_30958" data-name="Group 30958" transform="translate(37.005 -0.046)">
      <g id="Icon_ionic-ios-document" data-name="Icon ionic-ios-document" transform="translate(252.604 203.937)">
        <path id="Path_7756" data-name="Path 7756" d="M21.562,8.943h4.6a.25.25,0,0,0,.253-.253h0a1.5,1.5,0,0,0-.541-1.157L22.017,4.319a1.623,1.623,0,0,0-1.041-.374h0a.373.373,0,0,0-.374.374V7.983A.96.96,0,0,0,21.562,8.943Z" transform="translate(-11.049 -3.939)" fill="#f47822"/>
        <path id="Path_7757" data-name="Path 7757" d="M15.551,7.981V3.938H8.93A1.622,1.622,0,0,0,7.313,5.555V22.537A1.622,1.622,0,0,0,8.93,24.154H21.06a1.622,1.622,0,0,0,1.617-1.617V10.255H17.825A2.278,2.278,0,0,1,15.551,7.981Z" transform="translate(-7.313 -3.938)" fill="#f47822"/>
      </g>
      <g id="statistics" transform="translate(255.337 212.181)">
        <path id="Path_7754" data-name="Path 7754" d="M31.833,4.444a.829.829,0,0,0,.577-.234l.822.411a.817.817,0,0,0-.01.1.833.833,0,0,0,1.667,0,.823.823,0,0,0-.084-.357L35.92,3.25a.823.823,0,0,0,.357.084.834.834,0,0,0,.833-.833.821.821,0,0,0-.042-.247l.969-.727a.833.833,0,1,0-.372-.693.821.821,0,0,0,.042.247l-.969.727a.83.83,0,0,0-1.211,1.05L34.412,3.972a.819.819,0,0,0-.934.151l-.822-.411a.817.817,0,0,0,.01-.1.833.833,0,1,0-.833.833Zm0,0" transform="translate(-30.426 0)" fill="#0c3d56"/>
        <path id="Path_7755" data-name="Path 7755" d="M9.2,156.148h-.3v-5.87A.278.278,0,0,0,8.629,150H7.518a.278.278,0,0,0-.278.278v5.87H6.685v-4.2a.278.278,0,0,0-.278-.278H5.3a.278.278,0,0,0-.278.278v4.2H4.463v-1.981a.278.278,0,0,0-.278-.278H3.074a.278.278,0,0,0-.278.278v1.981H2.241v-3.092a.278.278,0,0,0-.278-.278H.852a.278.278,0,0,0-.278.278v3.092h-.3a.278.278,0,1,0,0,.555H9.2a.278.278,0,1,0,0-.555Zm0,0" transform="translate(0 -147.222)" fill="#0c3d56"/>
      </g>
    </g>
  </g>
</svg>
