<svg xmlns="http://www.w3.org/2000/svg" width="278" height="278" viewBox="0 0 278 278">
  <g id="Group_1991" data-name="Group 1991" transform="translate(-906.43 -373.43)">
    <circle id="Ellipse_27" data-name="Ellipse 27" cx="139" cy="139" r="139" transform="translate(906.43 373.43)" fill="#dcf7ff"/>
    <g id="Group_1990" data-name="Group 1990" transform="translate(965.252 410.05)">
      <path id="Path_2062" data-name="Path 2062" d="M96.211,534.329H0v-.786H96.353Z" transform="translate(0 -334.373)" fill="#3f3d56"/>
      <path id="Path_2063" data-name="Path 2063" d="M79.652,407.361l-5.6.373.747-58.606H88.611Z" transform="translate(-46.41 -218.798)" fill="#a0616a"/>
      <path id="Path_2064" data-name="Path 2064" d="M151.652,407.361l-5.6.373.747-58.606,8.933,0Z" transform="translate(-91.533 -218.798)" fill="#a0616a"/>
      <path id="Path_2065" data-name="Path 2065" d="M487.238,524.61a19.632,19.632,0,0,1-16.614.284l-2.8-67.1-8.01,66.516a41.029,41.029,0,0,1-17.747.3c1.375-9.964,7.244-70.624,6.719-81.75l39.2-1.866Z" transform="translate(-421.147 -342.393)" fill="#2f2e41"/>
      <path id="Path_2066" data-name="Path 2066" d="M462.88,692.759h0a5.663,5.663,0,0,1-5.653-6l.54-9.127c2.175-3.9,4.815-3.916,7.893-.282l2.6,7.988a5.663,5.663,0,0,1-5.384,7.419Z" transform="translate(-430.639 -488.838)" fill="#2f2e41"/>
      <path id="Path_2067" data-name="Path 2067" d="M533.88,692.759h0a5.664,5.664,0,0,1-5.653-6l.54-9.127c2.175-3.9,4.815-3.916,7.892-.282l2.6,7.988a5.663,5.663,0,0,1-5.384,7.419Z" transform="translate(-475.135 -488.838)" fill="#2f2e41"/>
      <circle id="Ellipse_28" data-name="Ellipse 28" cx="10.825" cy="10.825" r="10.825" transform="translate(40.335 4.532)" fill="#a0616a"/>
      <path id="Path_2068" data-name="Path 2068" d="M492.615,243.538l-17.545-7.092c4.2-2.058,7.049-5.883,9.332-10.452h7.839C491.867,232.965,491.566,239.773,492.615,243.538Z" transform="translate(-441.828 -207.65)" fill="#a0616a"/>
      <path id="Path_2069" data-name="Path 2069" d="M493.626,324.531l-41.808,1.12a499.948,499.948,0,0,0-2.48-61.887,10.873,10.873,0,0,1,7.006-11.248l4.06-1.522,16.425,4.479,7.752,5.943a7.935,7.935,0,0,1,3.077,6.849C486.484,285.4,489.1,304.481,493.626,324.531Z" transform="translate(-425.668 -223.317)" fill="#f47720"/>
      <path id="Path_2070" data-name="Path 2070" d="M571.32,463.1h0a4.353,4.353,0,0,1-4.579-3.866l-.924-8.321,4.939-1.376,4.078,7.033a4.353,4.353,0,0,1-3.514,6.53Z" transform="translate(-498.7 -347.747)" fill="#a0616a"/>
      <path id="Path_2071" data-name="Path 2071" d="M560.108,343.438l-9.706.373-7.466-29.863-1.866-36.956h0a7.75,7.75,0,0,1,6.728,6.718l3.351,26.5Z" transform="translate(-483.191 -239.612)" fill="#f47720"/>
      <path id="Path_2072" data-name="Path 2072" d="M81.926,129.628l-.373,24.637,16.425,27.623-14.558-28.37Z" transform="translate(-51.11 -81.235)" opacity="0.2"/>
      <path id="Path_2073" data-name="Path 2073" d="M69.277,229.313l9.735,16.729-3.45-.187Z" transform="translate(-43.417 -143.708)" opacity="0.2"/>
      <path id="Path_2074" data-name="Path 2074" d="M512.825,397.458a1.715,1.715,0,0,0-1.713,1.713V505.377a1.715,1.715,0,0,0,1.713,1.713H622.457a1.715,1.715,0,0,0,1.713-1.713V399.171a1.715,1.715,0,0,0-1.713-1.713Z" transform="translate(-464.416 -315.109)" fill="#e6e6e6"/>
      <path id="Path_2075" data-name="Path 2075" d="M522.612,510H627.084V408.958H522.612Z" transform="translate(-471.623 -322.316)" fill="#fff"/>
      <path id="Path_2076" data-name="Path 2076" d="M545.417,452.083c-.7,0-1.264,1-1.264,2.227s.567,2.227,1.264,2.227h47.648c.7,0,1.264-1,1.264-2.227s-.567-2.227-1.264-2.227Z" transform="translate(-485.123 -349.343)" fill="#e6e6e6"/>
      <path id="Path_2077" data-name="Path 2077" d="M545.417,488.8c-.7,0-1.264,1-1.264,2.227s.567,2.227,1.264,2.227h47.648c.7,0,1.264-1,1.264-2.227s-.567-2.227-1.264-2.227Z" transform="translate(-485.123 -372.351)" fill="#e6e6e6"/>
      <path id="Path_2078" data-name="Path 2078" d="M545.417,525.083c-.7,0-1.264,1-1.264,2.227s.567,2.227,1.264,2.227h47.648c.7,0,1.264-1,1.264-2.227s-.567-2.227-1.264-2.227Z" transform="translate(-485.123 -395.093)" fill="#e6e6e6"/>
      <path id="Path_2079" data-name="Path 2079" d="M545.417,561.794c-.7,0-1.264,1-1.264,2.227s.567,2.227,1.264,2.227h47.648c.7,0,1.264-1,1.264-2.227s-.567-2.227-1.264-2.227Z" transform="translate(-485.123 -418.1)" fill="#e6e6e6"/>
      <path id="Path_2080" data-name="Path 2080" d="M736.113,452.476a2.227,2.227,0,1,0,0,4.454h8.908a2.227,2.227,0,1,0,0-4.454Z" transform="translate(-604.031 -349.589)" fill="#e6e6e6"/>
      <path id="Path_2081" data-name="Path 2081" d="M736.113,488.476a2.227,2.227,0,1,0,0,4.454h8.908a2.227,2.227,0,1,0,0-4.454Z" transform="translate(-604.031 -372.151)" fill="#e6e6e6"/>
      <path id="Path_2082" data-name="Path 2082" d="M736.113,524.476a2.227,2.227,0,1,0,0,4.454h8.908a2.227,2.227,0,1,0,0-4.454Z" transform="translate(-604.031 -394.712)" fill="#e6e6e6"/>
      <path id="Path_2083" data-name="Path 2083" d="M736.113,560.476a2.227,2.227,0,0,0,0,4.454h8.908a2.227,2.227,0,0,0,0-4.454Z" transform="translate(-604.031 -417.274)" fill="#e6e6e6"/>
      <path id="Path_2084" data-name="Path 2084" d="M727.817,620.84a2.838,2.838,0,1,0,0,5.675h11.35a2.838,2.838,0,1,0,0-5.675Z" transform="translate(-598.449 -455.105)" fill="#f47720"/>
      <rect id="Rectangle_2016" data-name="Rectangle 2016" width="83.99" height="0.747" transform="translate(59.186 158.14)" fill="#e6e6e6"/>
      <path id="Path_2085" data-name="Path 2085" d="M502.027,460.284h0a4.353,4.353,0,0,1-5.712-1.81l-4.05-7.328,4.031-3.168,6.467,4.927a4.353,4.353,0,0,1-.736,7.379Z" transform="translate(-452.604 -346.77)" fill="#a0616a"/>
      <path id="Path_2086" data-name="Path 2086" d="M462.264,328.664l-8.212,4.479-18.664-32.1-2.151-28.23a14.745,14.745,0,0,1,9.436-14.892l2.42-.925,1.493,42.555Z" transform="translate(-415.583 -227.078)" fill="#f47720"/>
      <path id="Path_2087" data-name="Path 2087" d="M513.234,180.329l.12,1.805-.929-2.479a14.428,14.428,0,0,0-8.02-2.75h0a10.633,10.633,0,0,0-11.311,13.381l.129,1.551,2.986-4.106h0a10.5,10.5,0,0,1,10.107-2.267,17.816,17.816,0,0,1,3.74,1.63,20.55,20.55,0,0,1,4.818,4l.259-1.764C516.877,186.047,515.839,182.717,513.234,180.329Z" transform="translate(-452.888 -176.853)" fill="#2f2e41"/>
    </g>
  </g>
</svg>
