<svg xmlns="http://www.w3.org/2000/svg" width="24" height="24" viewBox="0 0 24 24">
  <g id="PO" transform="translate(-20906 2413)">
    <g id="Rectangle_19072" data-name="Rectangle 19072" transform="translate(20906 -2413)" fill="#fff" stroke="#707070" stroke-width="1" opacity="0">
      <rect width="24" height="24" stroke="none"/>
      <rect x="0.5" y="0.5" width="23" height="23" fill="none"/>
    </g>
    <g id="BOM" transform="translate(20900 -2411)">
      <path id="Path_7795" data-name="Path 7795" d="M23.078,17.577c0-.585,0,.456,0-15.194A2.385,2.385,0,0,0,20.693,0h-9.31A2.385,2.385,0,0,0,9,2.383V15.355a3.919,3.919,0,0,0,3.914,3.914H23.643A2.806,2.806,0,0,1,23.078,17.577ZM14.683,11.1h-2.86a.565.565,0,1,1,0-1.129h2.86a.565.565,0,1,1,0,1.129Zm0-2.409h-2.86a.565.565,0,1,1,0-1.129h2.86a.565.565,0,1,1,0,1.129Zm4.346,6.8v.39a.565.565,0,1,1-1.129,0v-.338a2.714,2.714,0,0,1-1.343-.5.565.565,0,0,1,.618-.945,1.686,1.686,0,0,0,.725.314v-2.33a4.1,4.1,0,0,1-.834-.489A1.856,1.856,0,0,1,17.9,8.449V8.109a.565.565,0,0,1,1.129,0v.3a2.287,2.287,0,0,1,1.059.507.565.565,0,0,1-.4.965c-.3,0-.323-.169-.663-.3v1.747l.288.1a2.126,2.126,0,0,1-.288,4.065Zm1.224-9.211h-8.43a.565.565,0,1,1,0-1.129h8.43a.565.565,0,1,1,0,1.129Zm0-2.108h-8.43a.565.565,0,1,1,0-1.129h8.43a.565.565,0,1,1,0,1.129Z" transform="translate(0)" fill="#0e3c55"/>
      <path id="Path_7796" data-name="Path 7796" d="M237.876,258.179c.042.033.088.065.137.1V257.15A.735.735,0,0,0,237.876,258.179Z" transform="translate(-220.114 -247.472)" fill="#bfbfbf"/>
      <path id="Path_7797" data-name="Path 7797" d="M275.48,332.94V334.7A.98.98,0,0,0,275.48,332.94Z" transform="translate(-256.451 -320.41)" fill="#bfbfbf"/>
      <path id="Path_7798" data-name="Path 7798" d="M415.15,241H413c0,9.9,0,7.991,0,8.507a1.692,1.692,0,0,0,3.385,0v-7.27A1.239,1.239,0,0,0,415.15,241Z" transform="translate(-388.795 -231.93)" fill="#f47822"/>
    </g>
  </g>
</svg>
