<svg xmlns="http://www.w3.org/2000/svg" width="25" height="24.253" viewBox="0 0 25 24.253">
  <g id="Group_32768" data-name="Group 32768" transform="translate(-4894.154 -1932.58)">
    <g id="Group_32766" data-name="Group 32766" transform="translate(4903.523 1932.607)">
      <rect id="Rectangle_19890" data-name="Rectangle 19890" width="4.049" height="8.315" transform="translate(0 6.52)" fill="#f16012"/>
      <path id="Path_10735" data-name="Path 10735" d="M4977.848,1932.752v3.477l-1.615,2.579-2.11.942v7.01l1.76,1.626,8.557-1.225.747-5.065v-3.347l-4.264-.352-1.268.053.328-1.253-.37-1.937.042-1.729Z" transform="translate(-4970.729 -1932.752)" fill="#f16012"/>
    </g>
    <g id="Group_32767" data-name="Group 32767" transform="translate(4902.889 1932.58)">
      <path id="Path_10736" data-name="Path 10736" d="M4959.51,1937.734c1.163,0,2.165-.009,3.166,0a2.279,2.279,0,0,1,2.425,2.9q-.426,2.618-.831,5.239a2.55,2.55,0,0,1-2.693,2.367c-2.3.015-4.6,0-6.9,0-.158,0-.354.045-.47-.03-1.186-.771-2.487-.269-3.731-.343-1.227-.073-1.584-.391-1.585-1.643q0-3.095,0-6.189c0-1.278.356-1.66,1.659-1.612a20.263,20.263,0,0,1,2.549.3c.756.125,2.316-1.125,2.46-2.153a16.178,16.178,0,0,0,.1-2.845c-.029-.752.28-1.03.983-1.123a2.394,2.394,0,0,1,2.86,2.249C4959.561,1935.772,4959.51,1936.7,4959.51,1937.734Zm-2.567-3.92c0,.308-.025.621,0,.93a4.466,4.466,0,0,1-3.021,5.067.685.685,0,0,0-.342.512q-.032,2.775,0,5.55a1.015,1.015,0,0,0,1,1.124c2.509.029,5.02.037,7.527-.051a1.434,1.434,0,0,0,1.012-.916c.357-1.917.607-3.856.837-5.795.107-.908-.369-1.371-1.3-1.385-1.083-.016-2.168-.029-3.25,0-.758.022-1.045-.292-1.011-1.042.041-.9.03-1.8,0-2.7C4958.369,1934.151,4957.964,1933.788,4956.943,1933.814Zm-4.718,5.792h-2.035v7.01h2.035Z" transform="translate(-4948.885 -1932.58)" fill="#003045"/>
    </g>
    <path id="Path_10737" data-name="Path 10737" d="M4899.134,1964.4c-.56,0-1.005.005-1.45,0a3.4,3.4,0,0,1-3.495-3.364q-.07-5.2,0-10.394a3.348,3.348,0,0,1,3.362-3.334c3.385-.045,6.771-.014,10.156-.016.445,0,.887.149.79.628a1.09,1.09,0,0,1-.855.558c-3.226.04-6.453.023-9.68.026-1.767,0-2.56.795-2.56,2.555q0,4.84,0,9.681a2.188,2.188,0,0,0,2.4,2.413c.45,0,.9,0,1.349,0,1.147,0,1.18.032,1.181,1.144,0,.924,0,1.848,0,2.989a17.864,17.864,0,0,0,1.838-1.8,5.953,5.953,0,0,1,5.841-2.389c1.989.205,4.016.023,6.026.049a2.614,2.614,0,0,0,2.511-1.338c.125-.211.542-.25.824-.368.071.3.288.666.189.9a3.146,3.146,0,0,1-2.375,1.9,6.455,6.455,0,0,1-1.262.1c-2.7.008-5.4-.015-8.093.026a1.939,1.939,0,0,0-1.171.473c-1.408,1.281-2.753,2.631-4.155,3.919a3.387,3.387,0,0,1-1.011.435,3.825,3.825,0,0,1-.347-1.033C4899.107,1966.941,4899.134,1965.725,4899.134,1964.4Z" transform="translate(0 -12.354)" fill="#003045"/>
  </g>
</svg>
