<svg xmlns="http://www.w3.org/2000/svg" width="24" height="24" viewBox="0 0 24 24">
  <g id="User" transform="translate(-20963 2413)">
    <g id="Rectangle_19074" data-name="Rectangle 19074" transform="translate(20963 -2413)" fill="#fff" stroke="#707070" stroke-width="1" opacity="0">
      <rect width="24" height="24" stroke="none"/>
      <rect x="0.5" y="0.5" width="23" height="23" fill="none"/>
    </g>
    <g id="User-2" data-name="User" transform="translate(20967 -2410)">
      <path id="Path_7821" data-name="Path 7821" d="M91.5,8.928A4.319,4.319,0,0,0,94.652,7.62,4.319,4.319,0,0,0,95.96,4.464a4.32,4.32,0,0,0-1.308-3.156,4.463,4.463,0,0,0-6.313,0,4.32,4.32,0,0,0-1.308,3.156A4.319,4.319,0,0,0,88.34,7.621,4.32,4.32,0,0,0,91.5,8.928Zm0,0" transform="translate(-83.881 0)" fill="#f47822"/>
      <path id="Path_7822" data-name="Path 7822" d="M15.426,252.615a11.027,11.027,0,0,0-.15-1.171,9.227,9.227,0,0,0-.288-1.177,5.816,5.816,0,0,0-.484-1.1,4.143,4.143,0,0,0-.73-.951,3.218,3.218,0,0,0-1.049-.659,3.624,3.624,0,0,0-1.339-.242,1.359,1.359,0,0,0-.726.308c-.217.142-.472.306-.756.487a4.33,4.33,0,0,1-.978.431,3.8,3.8,0,0,1-2.392,0,4.321,4.321,0,0,1-.977-.431c-.281-.18-.536-.344-.757-.488a1.357,1.357,0,0,0-.725-.308,3.619,3.619,0,0,0-1.338.243,3.215,3.215,0,0,0-1.049.659,4.145,4.145,0,0,0-.73.951,5.828,5.828,0,0,0-.484,1.1,9.25,9.25,0,0,0-.288,1.177,10.987,10.987,0,0,0-.15,1.172c-.025.355-.037.723-.037,1.094a3.078,3.078,0,0,0,.914,2.328,3.291,3.291,0,0,0,2.355.859h8.924a3.29,3.29,0,0,0,2.355-.859,3.076,3.076,0,0,0,.914-2.329c0-.373-.013-.742-.037-1.095Zm0,0" transform="translate(0 -238.363)" fill="#0e3c55"/>
    </g>
  </g>
</svg>
