<svg xmlns="http://www.w3.org/2000/svg" width="24" height="24" viewBox="0 0 24 24">
  <g id="CTC" transform="translate(-20990 2413)">
    <g id="Rectangle_19075" data-name="Rectangle 19075" transform="translate(20990 -2413)" fill="#fff" stroke="#707070" stroke-width="1" opacity="0">
      <rect width="24" height="24" stroke="none"/>
      <rect x="0.5" y="0.5" width="23" height="23" fill="none"/>
    </g>
    <g id="Report_2" data-name="Report 2" transform="translate(20993 -2410)">
      <path id="Path_7816" data-name="Path 7816" d="M32.582,8.438a1.574,1.574,0,0,0,1.1-.445l1.561.78a1.55,1.55,0,0,0-.019.192,1.582,1.582,0,0,0,3.164,0,1.563,1.563,0,0,0-.159-.678L40.342,6.17a1.563,1.563,0,0,0,.678.159A1.584,1.584,0,0,0,42.6,4.746a1.558,1.558,0,0,0-.079-.469l1.84-1.38a1.581,1.581,0,1,0-.706-1.316,1.558,1.558,0,0,0,.079.469L41.9,3.43a1.575,1.575,0,0,0-2.3,1.994L37.479,7.542a1.555,1.555,0,0,0-1.773.286l-1.561-.78a1.55,1.55,0,0,0,.019-.192,1.582,1.582,0,1,0-1.582,1.582Zm0,0" transform="translate(-29.91)" fill="#f47822"/>
      <path id="Path_7817" data-name="Path 7817" d="M17.473,161.672H16.91V150.527a.527.527,0,0,0-.527-.527H14.274a.527.527,0,0,0-.527.527v11.145H12.692v-7.981a.527.527,0,0,0-.527-.527H10.055a.527.527,0,0,0-.527.527v7.981H8.473V157.91a.527.527,0,0,0-.527-.527H5.836a.527.527,0,0,0-.527.527v3.762H4.254V155.8a.527.527,0,0,0-.527-.527H1.617a.527.527,0,0,0-.527.527v5.871H.527a.527.527,0,0,0,0,1.055H17.473a.527.527,0,0,0,0-1.055Zm0,0" transform="translate(0 -144.726)" fill="#0e3c55"/>
    </g>
  </g>
</svg>

