<svg xmlns="http://www.w3.org/2000/svg" width="24" height="24" viewBox="0 0 24 24">
  <g id="My_material" data-name="My material" transform="translate(-21046 2413)">
    <g id="Rectangle_19078" data-name="Rectangle 19078" transform="translate(21046 -2413)" fill="#fff" stroke="#707070" stroke-width="1" opacity="0">
      <rect width="24" height="24" stroke="none"/>
      <rect x="0.5" y="0.5" width="23" height="23" fill="none"/>
    </g>
    <g id="Material" transform="translate(21048 -2456.137)">
      <path id="Path_7828" data-name="Path 7828" d="M78.189,354.889a2.128,2.128,0,0,0-1.552.672,2.133,2.133,0,1,0,0,2.925,2.134,2.134,0,1,0,1.552-3.6Z" transform="translate(-70.117 -295.809)" fill="#f47822"/>
      <path id="Path_7829" data-name="Path 7829" d="M19.868,57.174a.583.583,0,0,0-.047-.225c-.012-.028.108.209-1.918-3.76a.582.582,0,0,0-.518-.317h-3.1a.582.582,0,0,0-.582.582v.66H12.143a2.986,2.986,0,0,0,.354-1.729l-.041-.419a2.993,2.993,0,0,0-1.873-2.5L5.306,47.352a3.018,3.018,0,0,0-2.361.054l-.782.356A2.987,2.987,0,0,0,.806,48.994l-.117.2A2.987,2.987,0,0,0,.3,50.988l.076.787a3,3,0,0,0,1.213,2.131V56.6H1.241a.582.582,0,0,0-.564.439l-.66,2.594a.582.582,0,0,0,.129.53L1.427,61.6a.581.581,0,0,0,.29.176,3.3,3.3,0,0,1,4.8-3.471,3.3,3.3,0,0,1,4.8,3.49h.648a3.3,3.3,0,1,1,6.5-.019.581.581,0,0,0,.258-.143l.97-.931a.582.582,0,0,0,.179-.42c0-.091,0-3.076,0-3.109ZM2.755,56.6v-1.86l2.61,1.86Zm10.943,0H10.625a6.351,6.351,0,0,0,.848-1.319H13.7Z" transform="translate(0)" fill="#0e3c55"/>
      <path id="Path_7830" data-name="Path 7830" d="M339.077,354.889a2.134,2.134,0,1,0,1.852,3.193A2.135,2.135,0,0,0,339.077,354.889Z" transform="translate(-323.865 -295.809)" fill="#f47822"/>
    </g>
  </g>
</svg>
