<svg xmlns="http://www.w3.org/2000/svg" width="24" height="24" viewBox="0 0 24 24">
  <g id="Supplier" transform="translate(-20963 2382)">
    <g id="Rectangle_19077" data-name="Rectangle 19077" transform="translate(20963 -2382)" fill="#fff" stroke="#707070" stroke-width="1" opacity="0">
      <rect width="24" height="24" stroke="none"/>
      <rect x="0.5" y="0.5" width="23" height="23" fill="none"/>
    </g>
    <g id="NEW_SUPPLIER" data-name="NEW SUPPLIER" transform="translate(20965.998 -2380)">
      <path id="Path_7774" data-name="Path 7774" d="M43.437,19.5h.192a.688.688,0,0,1,0,1.374H33.876a.688.688,0,0,1-.683-.5.672.672,0,0,1,.3-.77,1.235,1.235,0,0,1,.341-.108.933.933,0,0,1,.2,0,4.762,4.762,0,0,1,2.579-4.2c.049.269.092.513.136.762.086.484.168.969.257,1.451a.354.354,0,0,0,.575.219.363.363,0,0,0,.128-.371c-.142-.8-.285-1.6-.422-2.406a.232.232,0,0,1,.038-.159.9.9,0,0,1,.733-.368q.674-.01,1.347,0a.906.906,0,0,1,.742.373.219.219,0,0,1,.036.149c-.133.8-.275,1.6-.416,2.395a.364.364,0,0,0,.275.459.357.357,0,0,0,.427-.321c.122-.7.25-1.394.371-2.088a.5.5,0,0,1,.022-.09A4.749,4.749,0,0,1,43.437,19.5Z" transform="translate(-29.776 -14.42)" fill="#f47822"/>
      <path id="Path_7775" data-name="Path 7775" d="M45.69,122.619v-3.931l.443-.058a2.265,2.265,0,0,0,1.56,1.066,7,7,0,0,0,4.217-.1,4.215,4.215,0,0,0,.8-.421,1.155,1.155,0,0,0,.423-.484.128.128,0,0,1,.095-.054c.128.009.249.031.385.05v3.931Z" transform="translate(-40.694 -105.257)" fill="#0e3c55"/>
      <path id="Path_7776" data-name="Path 7776" d="M45.559,73.03a.291.291,0,0,0,.385-.146,1.925,1.925,0,0,0,.311-1.014,5.036,5.036,0,0,0-.031-.533h.825c-.01.184-.013.367-.033.548a2.846,2.846,0,0,1-.335,1.087.92.92,0,0,1-.372.391.248.248,0,0,0-.078.128,7.712,7.712,0,0,1-1.446,2.391,4.325,4.325,0,0,1-1.757,1.24,2.877,2.877,0,0,1-2.576-.323,5.753,5.753,0,0,1-1.807-1.868,8.41,8.41,0,0,1-.729-1.462.339.339,0,0,0-.1-.112,1.5,1.5,0,0,1-.241-.2,2.945,2.945,0,0,1-.493-1.825h.851c0,.236-.006.463,0,.689a1.528,1.528,0,0,0,.317.9.257.257,0,0,0,.349.1c.017.042.032.085.047.128A5.909,5.909,0,0,0,40.3,75.7a2.872,2.872,0,0,0,1.39.706,2.35,2.35,0,0,0,1.653-.336,4.516,4.516,0,0,0,1.427-1.421,6.6,6.6,0,0,0,.751-1.519A.557.557,0,0,0,45.559,73.03Z" transform="translate(-33.188 -64.027)" fill="#f47822"/>
      <path id="Path_7777" data-name="Path 7777" d="M124.632,126.92v-.547a1.725,1.725,0,0,0-.956-1.593.155.155,0,0,1-.076-.11v-3.7a.7.7,0,0,1,.01-.074c.2.081.385.145.569.236a3.665,3.665,0,0,1,1.436,1.4,6.477,6.477,0,0,1,.86,2.108,1.572,1.572,0,0,1-.624,1.681,4.473,4.473,0,0,1-1.155.588A.288.288,0,0,1,124.632,126.92Z" transform="translate(-108.605 -107.235)" fill="#0e3c55"/>
      <path id="Path_7778" data-name="Path 7778" d="M8.66,127.067a3.336,3.336,0,0,1-.335-.128,7.828,7.828,0,0,1-.819-.44,1.559,1.559,0,0,1-.679-1.765,6.417,6.417,0,0,1,1.163-2.509,3.157,3.157,0,0,1,1.56-1.136c.04-.013.082-.024.137-.04,0,.049.006.09.006.128v3.58a.168.168,0,0,1-.1.172,1.7,1.7,0,0,0-.934,1.54C8.656,126.663,8.66,126.852,8.66,127.067Z" transform="translate(-6.77 -107.366)" fill="#0e3c55"/>
    </g>
  </g>
</svg>
