<svg xmlns="http://www.w3.org/2000/svg" width="24" height="24" viewBox="0 0 24 24">
  <g id="Receipts" transform="translate(-21046 2382)">
    <g id="Rectangle_19081" data-name="Rectangle 19081" transform="translate(21046 -2382)" fill="#fff" stroke="#707070" stroke-width="1" opacity="0">
      <rect width="24" height="24" stroke="none"/>
      <rect x="0.5" y="0.5" width="23" height="23" fill="none"/>
    </g>
    <g id="GRN" transform="translate(21049 -2379)">
      <path id="Path_7825" data-name="Path 7825" d="M10.154,4.476H5.305A1.307,1.307,0,0,1,4,3.17V2.051a.56.56,0,0,1,.559-.559h1.2a2.052,2.052,0,0,1,3.947,0h1.2a.56.56,0,0,1,.559.559V3.17A1.307,1.307,0,0,1,10.154,4.476Z" transform="translate(-1.016)" fill="#f47822"/>
      <path id="Path_7826" data-name="Path 7826" d="M21.492,17.189a.374.374,0,0,1-.333-.206L20.2,15.06a1.873,1.873,0,0,1-.2-.834V7.492a1.492,1.492,0,1,1,2.984,0v6.734a1.873,1.873,0,0,1-.2.834l-.962,1.923a.374.374,0,0,1-.333.206Zm.962-2.3h0Z" transform="translate(-5.081 -1.524)" fill="#f47822"/>
      <path id="Path_7827" data-name="Path 7827" d="M11.375,3h-.186v.932A2.053,2.053,0,0,1,9.138,5.984H4.289A2.053,2.053,0,0,1,2.238,3.932V3H2.051A2.053,2.053,0,0,0,0,5.051V16.613a2.053,2.053,0,0,0,2.051,2.051h9.324a2.053,2.053,0,0,0,2.051-2.051V5.051A2.053,2.053,0,0,0,11.375,3ZM10.63,16.427H2.8a.559.559,0,1,1,0-1.119H10.63a.559.559,0,1,1,0,1.119Zm0-2.238H2.8a.559.559,0,1,1,0-1.119H10.63a.559.559,0,1,1,0,1.119Zm0-2.238H2.8a.559.559,0,0,1,0-1.119H10.63a.559.559,0,1,1,0,1.119Zm0-2.238H2.8a.559.559,0,1,1,0-1.119H10.63a.559.559,0,1,1,0,1.119Z" transform="translate(0 -0.762)" fill="#0e3c55"/>
    </g>
  </g>
</svg>
