<svg xmlns="http://www.w3.org/2000/svg" width="32" height="32" viewBox="0 0 32 32">
  <g id="trackpayment" transform="translate(186 3509)">
    <rect id="Rectangle_1988" data-name="Rectangle 1988" width="32" height="32" transform="translate(-186 -3509)" fill="none"/>
    <g id="transaction" transform="translate(-182 -3505.115)">
      <g id="Group_1890" data-name="Group 1890" transform="translate(0 0.114)">
        <g id="Group_1889" data-name="Group 1889" transform="translate(0 0)">
          <path id="Path_2041" data-name="Path 2041" d="M21.029,1.28V4.79A11.681,11.681,0,0,0,.58,15.43a.389.389,0,0,0,.37.269.377.377,0,0,0,.121-.02.389.389,0,0,0,.249-.491A10.9,10.9,0,0,1,20.633,5.563H16.357v.779h5.451V1.28h-.779Z" transform="translate(0 -0.114)" fill="#f47721" stroke="#f47721" stroke-width="1"/>
        </g>
      </g>
      <g id="Group_1892" data-name="Group 1892" transform="translate(1.56 7.898)">
        <g id="Group_1891" data-name="Group 1891">
          <path id="Path_2042" data-name="Path 2042" d="M53.287,160.287a.389.389,0,0,0-.74.242,10.905,10.905,0,0,1-19.313,9.625H37.51v-.779H32.059v5.062h.779v-3.511a11.681,11.681,0,0,0,20.449-10.64Z" transform="translate(-32.059 -160.029)" fill="#f47721" stroke="#f47721" stroke-width="1"/>
        </g>
      </g>
      <g id="Group_1894" data-name="Group 1894" transform="translate(8.18 4.005)">
        <g id="Group_1893" data-name="Group 1893">
          <path id="Path_2043" data-name="Path 2043" d="M171.563,87.457a2.726,2.726,0,1,1,2.726-2.726h.779a3.509,3.509,0,0,0-3.115-3.481V80.059h-.779V81.25a3.5,3.5,0,0,0,.389,6.986,2.726,2.726,0,1,1-2.726,2.726h-.779a3.509,3.509,0,0,0,3.115,3.481v1.191h.779V94.443a3.5,3.5,0,0,0-.389-6.986Z" transform="translate(-168.059 -80.059)" fill="#f47721" stroke="#f47721" stroke-width="1"/>
        </g>
      </g>
    </g>
  </g>
</svg>
