<svg xmlns="http://www.w3.org/2000/svg" width="59" height="59" viewBox="0 0 59 59">
  <g id="Group_2024" data-name="Group 2024" transform="translate(-887.887 -471.887)">
    <g id="Group_1954" data-name="Group 1954" transform="translate(888 472)">
      <circle id="Ellipse_1" data-name="Ellipse 1" cx="29.5" cy="29.5" r="29.5" transform="translate(-0.113 -0.113)" fill="#eefcf2"/>
    </g>
    <g id="Group_7" data-name="Group 7" transform="translate(899.119 485.767)">
      <path id="Path_1" data-name="Path 1" d="M103.881,109.133c0-.122.041-.284.041-.447a5.44,5.44,0,0,0-5.439-5.439,5.3,5.3,0,0,0-3.41,1.218A8.275,8.275,0,0,0,87.767,100a8.177,8.177,0,0,0-8.2,8.2,7.182,7.182,0,0,0,.041.934,6.652,6.652,0,0,0,.649,13.274h23.3a6.64,6.64,0,0,0,.325-13.274Z" transform="translate(-73.6 -100)" fill="#4caf50"/>
      <g id="Group_6" data-name="Group 6" transform="translate(10.432 11.203)">
        <path id="Path_2" data-name="Path 2" d="M191.378,218.884h-4.343v7.185h-6.292v-7.185H176.4l7.509-8.484Z" transform="translate(-176.4 -210.4)" fill="#324a5e"/>
        <rect id="Rectangle_1" data-name="Rectangle 1" width="6.292" height="0.934" transform="translate(4.343 16.846)" fill="#324a5e"/>
        <rect id="Rectangle_2" data-name="Rectangle 2" width="6.292" height="0.934" transform="translate(4.343 19.119)" fill="#324a5e"/>
      </g>
    </g>
  </g>
</svg>
