<svg xmlns="http://www.w3.org/2000/svg" width="30" height="26.05" viewBox="0 0 30 26.05">
  <path id="Icon_metro-image" data-name="Icon metro-image" d="M30.692,5.717l0,0V28.042l0,0H4.449l0,0V5.72l0,0Zm0-1.861H4.446A1.873,1.873,0,0,0,2.571,5.717V28.045a1.873,1.873,0,0,0,1.875,1.861H30.7a1.873,1.873,0,0,0,1.875-1.861V5.717A1.873,1.873,0,0,0,30.7,3.856Zm-3.75,6.513a2.813,2.813,0,1,1-2.812-2.791,2.8,2.8,0,0,1,2.812,2.791Zm1.875,15.816H6.321V22.463L12.883,11.3l7.5,9.3h1.875l6.563-5.582Z" transform="translate(-2.57 -3.856)" fill="#f47720"/>
</svg>
