<svg xmlns="http://www.w3.org/2000/svg" width="26" height="26" viewBox="0 0 26 26"><defs><style>.a{fill:#eefcf2;}.b{fill:#4caf50;}.c{fill:#324a5e;}</style></defs><g transform="translate(-5775 -250)"><g transform="translate(4712.5 -59.5)"><circle class="a" cx="13" cy="13" r="13" transform="translate(1062.5 309.5)"/><g transform="translate(-6.608 -11.862)"><path class="b" d="M87.782,104.277c0-.057.019-.133.019-.209a2.548,2.548,0,0,0-2.547-2.547,2.484,2.484,0,0,0-1.6.57A3.875,3.875,0,0,0,80.235,100a3.829,3.829,0,0,0-3.84,3.84,3.364,3.364,0,0,0,.019.437,3.116,3.116,0,0,0,.3,6.216H87.63a3.11,3.11,0,0,0,.152-6.216Z" transform="translate(999.508 227.362)"/><g transform="translate(1077.994 332.609)"><path class="c" d="M183.415,214.373h-2.034v3.365h-2.947v-3.365H176.4l3.517-3.973Z" transform="translate(-176.4 -210.4)"/><rect class="c" width="2.947" height="0.437" transform="translate(2.034 7.889)"/><rect class="c" width="2.947" height="0.437" transform="translate(2.034 8.954)"/></g></g></g></g></svg>