<svg xmlns="http://www.w3.org/2000/svg" width="28" height="28" viewBox="0 0 28 28">
  <g id="user-hamburger" transform="translate(-363 -313)">
    <rect id="Rectangle_1972" data-name="Rectangle 1972" width="28" height="28" transform="translate(363 313)" fill="none"/>
    <path id="user" d="M9.071,10.2a5.1,5.1,0,1,0-5.1-5.1A5.1,5.1,0,0,0,9.071,10.2Zm4.535,1.134H11.654a6.168,6.168,0,0,1-5.166,0H4.535A4.535,4.535,0,0,0,0,15.874v.567a1.7,1.7,0,0,0,1.7,1.7h14.74a1.7,1.7,0,0,0,1.7-1.7v-.567A4.535,4.535,0,0,0,13.606,11.339Z" transform="translate(368 318)" fill="#f47822"/>
  </g>
</svg>
